<?xml version="1.0" standalone="no"?><!DOCTYPE svg PUBLIC "-//W3C//DTD SVG 1.1//EN" "http://www.w3.org/Graphics/SVG/1.1/DTD/svg11.dtd"><svg t="1735352925625" class="icon" viewBox="0 0 1024 1024" version="1.1" xmlns="http://www.w3.org/2000/svg" p-id="4692" xmlns:xlink="http://www.w3.org/1999/xlink" width="200" height="200"><path d="M474.2 894.7c-185 0-324.6-137.6-324.6-320 0-181.1 172.1-346.1 361.1-346.1 89.2 0 171.7 39.3 232.3 110.7 56.3 66.3 88.6 155.1 88.6 243.7 0 86.1-38.7 165.9-109.1 224.5-67.3 56.2-155.5 87.2-248.3 87.2z m36.6-629.1c-80.4 0-162.6 34.6-225.6 94.9-62.7 60-98.6 138.1-98.6 214.2 0 164 121 283 287.6 283 176.7 0 320.5-123.2 320.5-274.7 0.1-196-147.3-317.4-283.9-317.4z" fill="#00B39B" p-id="4693"></path><path d="M142.3 755.2c-53.7 0-97.5-43.7-97.5-97.5s43.7-97.5 97.5-97.5c10.2 0 18.5 8.3 18.5 18.5s-8.3 18.5-18.5 18.5c-33.4 0-60.5 27.2-60.5 60.5 0 33.4 27.2 60.5 60.5 60.5 11.1 0 22-3 31.4-8.8 8.7-5.3 20.1-2.5 25.4 6.2 5.3 8.7 2.5 20.1-6.2 25.4-15.2 9.3-32.7 14.2-50.6 14.2zM814.6 753.6c-8.5 0-17.2-1.1-25.9-3.5-9.8-2.7-15.6-12.9-12.9-22.7 2.7-9.8 12.9-15.6 22.7-12.9 32.2 8.9 65.6-10.1 74.4-42.3 8.9-32.2-10.1-65.6-42.3-74.4-9.8-2.7-15.6-12.9-12.9-22.7 2.7-9.8 12.9-15.6 22.7-12.9 51.8 14.3 82.3 68 68.1 119.8-11.8 43.2-51.1 71.6-93.9 71.6zM450.6 511.8c34.6 0 34.6-53.8 0-53.8-34.6 0.1-34.6 53.8 0 53.8zM645.7 511.8c34.6 0 34.6-53.8 0-53.8-34.5 0.1-34.6 53.8 0 53.8zM552.9 763.6c34.6 0 34.6-53.8 0-53.8s-34.6 53.8 0 53.8zM521.4 612.2c-5.4 0-10.7-2.4-14.4-6.9-6.4-7.9-5.2-19.6 2.8-26 13-10.5 28.4-16 44.5-16 14.4 0 28.4 4.5 40.5 13.1 8.3 5.9 10.3 17.4 4.5 25.7-5.9 8.3-17.4 10.3-25.7 4.5-12.4-8.8-28.5-8.2-40.6 1.5-3.4 2.8-7.5 4.1-11.6 4.1zM442.9 265c-2.9 0-5.8-0.7-8.5-2.1-23.7-12.3-61.3-55.2-33.8-128.9 3.6-9.6 14.2-14.4 23.8-10.8 9.6 3.6 14.4 14.2 10.8 23.8-23.1 61.9 14.6 82.4 16.2 83.2 9 4.7 12.6 15.9 7.9 24.9-3.2 6.2-9.7 9.9-16.4 9.9z" fill="#00B39B" p-id="4694"></path><path d="M491.4 258.4c-6.3 0-12.5-3.2-15.9-9.1-4.3-7.2-41.3-71.8-28.1-121.5 4.8-17.9 15.8-32.2 31.9-41.3 16.7-9.4 36.8-12.2 55.1-7.6 15.1 3.8 49.8 18.3 46.2 70.9-0.3 16.1-11.4 47.5-52.5 56.8-9.9 2.2-19.8-4-22.1-13.9-2.3-9.9 4-19.8 13.9-22.1 23.6-5.4 23.8-21.2 23.8-21.4 0-0.5 0-1 0.1-1.5 1.9-24.7-8.8-30.6-18.3-33-9.2-2.3-19.4-0.9-28 3.9-7.5 4.3-12.1 10.2-14.4 18.7-7.9 29.6 14.7 77.3 24.1 93.2 5.2 8.8 2.3 20.1-6.5 25.3-2.8 1.8-6.1 2.6-9.3 2.6z" fill="#00B39B" p-id="4695"></path></svg>