<?xml version="1.0" standalone="no"?><!DOCTYPE svg PUBLIC "-//W3C//DTD SVG 1.1//EN" "http://www.w3.org/Graphics/SVG/1.1/DTD/svg11.dtd"><svg t="1735352919613" class="icon" viewBox="0 0 1024 1024" version="1.1" xmlns="http://www.w3.org/2000/svg" p-id="4543" xmlns:xlink="http://www.w3.org/1999/xlink" width="200" height="200"><path d="M370.02666667 498.98666667c0 21.86666667 17.70666667 39.68 39.68 39.68 21.86666667 0 39.57333333-17.70666667 39.57333333-39.68s-17.70666667-39.68-39.57333333-39.68-39.68 17.81333333-39.68 39.68zM660.48 498.98666667c0-21.86666667-17.70666667-39.68-39.57333333-39.68s-39.68 17.70666667-39.68 39.68 17.70666667 39.68 39.68 39.68c21.76-0.10666667 39.57333333-17.81333333 39.57333333-39.68zM594.56 638.61333333c0 46.61333333-40.96 63.25333333-79.36 63.25333334s-79.36-16.64-79.36-63.25333334c0-9.92-8-17.92-17.92-17.92s-17.92 8-17.92 17.92c0 59.2 46.29333333 98.98666667 115.09333333 98.98666667s115.09333333-39.78666667 115.09333334-98.98666667c0-9.92-8-17.92-17.92-17.92s-17.70666667 8.10666667-17.70666667 17.92z" fill="#FF3333" p-id="4544"></path><path d="M875.2 552.64c0-47.68-30.18666667-90.24-74.24-107.2-28.26666667-73.92-75.52-129.38666667-137.6-160.32-8.74666667-4.37333333-19.52-0.74666667-24 8s-0.85333333 19.52 8 24c55.78666667 27.73333333 98.34666667 79.04 122.98666667 148.16 0.10666667 0.32 0.42666667 0.42666667 0.64 0.74666667 1.28 2.98666667 3.09333333 5.54666667 5.76 7.46666666 0.42666667 0.32 0.96 0.53333333 1.49333333 0.74666667 1.28 0.74666667 2.45333333 1.70666667 4.05333333 2.13333333 33.70666667 9.81333333 57.28 41.17333333 57.28 76.16 0 34.24-21.76 64.42666667-54.4 75.41333334-2.34666667 0.42666667-4.37333333 1.49333333-6.29333333 2.77333333-0.42666667 0.32-0.74666667 0.64-1.06666667 0.96-2.45333333 2.02666667-4.48 4.48-5.65333333 7.57333333-0.10666667 0.21333333-0.21333333 0.21333333-0.32 0.42666667-36.37333333 106.24-136.10666667 177.6-248.53333333 177.6-110.50666667 0-209.92-69.97333333-247.36-174.08-0.32-0.85333333-0.96-1.49333333-1.38666667-2.34666667-0.64-1.06666667-1.06666667-2.24-1.92-3.2-0.74666667-0.85333333-1.70666667-1.49333333-2.56-2.24-0.85333333-0.74666667-1.70666667-1.49333333-2.66666667-2.02666666-1.17333333-0.64-2.45333333-0.85333333-3.84-1.28-0.74666667-0.21333333-1.49333333-0.64-2.24-0.74666667-40-4.69333333-70.08-38.61333333-70.08-78.82666667 0-40.96 30.61333333-74.98666667 71.14666667-79.14666666 2.88-0.32 5.33333333-1.38666667 7.68-2.88 0.53333333-0.32 0.85333333-0.74666667 1.28-1.06666667 2.34666667-1.81333333 4.16-4.05333333 5.33333333-6.82666667 0.10666667-0.32 0.42666667-0.42666667 0.53333334-0.74666666 19.30666667-51.2 47.89333333-107.84 113.28-138.98666667 8.96-4.26666667 12.69333333-14.93333333 8.53333333-23.78666667-4.26666667-8.85333333-14.82666667-12.69333333-23.78666667-8.53333333-72.85333333 34.56-105.92 93.97333333-127.68 149.54666667-53.12 10.77333333-92.05333333 57.06666667-92.05333333 112.53333333 0 54.61333333 38.61333333 100.8 91.2 112.10666667C291.62666667 777.6 401.17333333 853.01333333 523.30666667 853.01333333c124.8 0 235.52-77.54666667 278.93333333-193.6 43.84-17.38666667 72.96-59.09333333 72.96-106.77333333z" fill="#FF3333" p-id="4545"></path><path d="M428.69333333 365.97333333h0.53333334c9.92-0.32 17.70666667-8.53333333 17.38666666-18.34666666-0.85333333-31.57333333 8.10666667-118.82666667 59.09333334-143.14666667 8.85333333-4.26666667 12.69333333-14.93333333 8.42666666-23.78666667s-14.93333333-12.69333333-23.78666666-8.42666666c-82.13333333 39.14666667-79.57333333 170.88-79.46666667 176.42666666 0.21333333 9.6 8.10666667 17.28 17.81333333 17.28zM499.09333333 349.44c0.74666667 9.38666667 8.53333333 16.53333333 17.81333334 16.53333333h1.38666666c9.81333333-0.74666667 17.17333333-9.28 16.53333334-19.2-0.10666667-1.17333333-7.25333333-120.64 56.96-141.44 9.38666667-2.98666667 14.50666667-13.12 11.52-22.50666666-2.98666667-9.38666667-13.01333333-14.50666667-22.50666667-11.52-91.73333333 29.65333333-82.13333333 172.05333333-81.70666667 178.13333333zM580.69333333 349.12c0.53333333 9.49333333 8.42666667 16.85333333 17.81333334 16.85333333h0.96c9.81333333-0.53333333 17.38666667-8.96 16.85333333-18.88 0-1.06666667-5.33333333-108.8 56.64-136.96 8.96-4.05333333 12.90666667-14.72 8.85333333-23.68-4.05333333-8.96-14.61333333-13.01333333-23.68-8.85333333-83.84 38.18666667-77.76 166.08-77.44 171.52z" fill="#FF3333" p-id="4546"></path></svg>