<?xml version="1.0" standalone="no"?><!DOCTYPE svg PUBLIC "-//W3C//DTD SVG 1.1//EN" "http://www.w3.org/Graphics/SVG/1.1/DTD/svg11.dtd"><svg t="1735352954808" class="icon" viewBox="0 0 1024 1024" version="1.1" xmlns="http://www.w3.org/2000/svg" p-id="4490" xmlns:xlink="http://www.w3.org/1999/xlink" width="200" height="200"><path d="M871.424 529.408c-9.216 0-17.408 1.024-25.6 4.096C813.056 408.576 685.056 314.368 532.48 314.368c-153.6 0-282.624 95.232-315.392 223.232-10.24-5.12-21.504-8.192-33.792-8.192-45.056 0-80.896 35.84-80.896 80.896s35.84 80.896 80.896 80.896c14.336 0 27.648-4.096 39.936-10.24C262.144 798.72 386.048 884.736 532.48 884.736c144.384 0 267.264-83.968 308.224-199.68 9.216 4.096 20.48 6.144 31.744 6.144 45.056 0 80.896-35.84 80.896-80.896-1.024-44.032-36.864-80.896-81.92-80.896z" fill="#FFEBE6" p-id="4491"></path><path d="M532.48 894.976c-142.336 0-269.312-81.92-315.392-200.704-10.24 4.096-22.528 6.144-33.792 6.144-50.176 0-91.136-40.96-91.136-91.136s40.96-91.136 91.136-91.136c9.216 0 18.432 1.024 27.648 4.096C248.832 396.288 381.952 304.128 532.48 304.128c151.552 0 281.6 89.088 321.536 217.088 6.144-1.024 12.288-2.048 18.432-2.048 50.176 0 91.136 40.96 91.136 91.136s-40.96 91.136-91.136 91.136c-8.192 0-17.408-1.024-25.6-3.072C799.744 816.128 674.816 894.976 532.48 894.976zM223.232 670.72c1.024 0 2.048 0 4.096 1.024 3.072 1.024 5.12 3.072 6.144 6.144C271.36 793.6 394.24 874.496 532.48 874.496c137.216 0 258.048-77.824 297.984-193.536 1.024-3.072 3.072-5.12 5.12-6.144s5.12-1.024 8.192 0c8.192 4.096 17.408 5.12 27.648 5.12 38.912 0 70.656-31.744 70.656-70.656s-31.744-70.656-70.656-70.656c-7.168 0-15.36 1.024-22.528 4.096-3.072 1.024-5.12 1.024-8.192-1.024s-4.096-4.096-5.12-6.144C802.816 411.648 677.888 324.608 532.48 324.608c-145.408 0-273.408 90.112-305.152 215.04-1.024 3.072-3.072 5.12-5.12 7.168-3.072 1.024-6.144 1.024-9.216 0-9.216-4.096-19.456-7.168-29.696-7.168-38.912 0-70.656 31.744-70.656 70.656s31.744 70.656 70.656 70.656c12.288 0 24.576-3.072 34.816-9.216 1.024-1.024 3.072-1.024 5.12-1.024z" fill="#1C1C1C" p-id="4492"></path><path d="M687.104 392.192l-139.264-68.608c-10.24-4.096-20.48-4.096-30.72 0l-139.264 68.608C348.16 403.456 317.44 380.928 317.44 349.184V204.8c0-31.744 31.744-53.248 60.416-43.008l139.264 68.608c10.24 4.096 20.48 4.096 30.72 0l139.264-68.608C716.8 150.528 747.52 173.056 747.52 204.8v145.408c1.024 30.72-30.72 53.248-60.416 41.984z" fill="#C1FDF2" p-id="4493"></path><path d="M702.464 405.504c-6.144 0-13.312-1.024-19.456-3.072h-1.024L542.72 333.824c-7.168-3.072-15.36-3.072-22.528 0l-140.288 68.608c-17.408 6.144-35.84 4.096-51.2-7.168-14.336-10.24-23.552-27.648-23.552-45.056V204.8c0-18.432 9.216-34.816 23.552-45.056 14.336-10.24 33.792-13.312 51.2-7.168h1.024l139.264 68.608c7.168 3.072 15.36 3.072 22.528 0l140.288-68.608c17.408-6.144 35.84-4.096 51.2 7.168 14.336 10.24 23.552 27.648 23.552 45.056v145.408c0 18.432-9.216 34.816-23.552 45.056-9.216 6.144-20.48 10.24-31.744 10.24z m-11.264-22.528c11.264 4.096 22.528 2.048 31.744-4.096 9.216-7.168 15.36-17.408 15.36-28.672V204.8c0-11.264-5.12-22.528-15.36-28.672-9.216-6.144-20.48-8.192-31.744-4.096l-140.288 68.608c-12.288 4.096-25.6 4.096-37.888 0H512l-139.264-68.608c-11.264-4.096-22.528-2.048-31.744 4.096-9.216 7.168-15.36 17.408-15.36 28.672v145.408c0 11.264 5.12 22.528 15.36 28.672 9.216 6.144 20.48 8.192 31.744 4.096l140.288-68.608c12.288-4.096 25.6-4.096 37.888 0h1.024l139.264 68.608z" fill="#1C1C1C" p-id="4494"></path><path d="M550.912 352.256h-36.864c-21.504 0-39.936-17.408-39.936-39.936v-71.68c0-21.504 17.408-39.936 39.936-39.936h36.864c21.504 0 39.936 17.408 39.936 39.936v71.68c-1.024 22.528-18.432 39.936-39.936 39.936z" fill="#FFDA44" p-id="4495"></path><path d="M550.912 362.496h-36.864c-27.648 0-50.176-22.528-50.176-50.176v-71.68c0-27.648 22.528-50.176 50.176-50.176h36.864c27.648 0 50.176 22.528 50.176 50.176v71.68c-1.024 27.648-23.552 50.176-50.176 50.176z m-36.864-150.528c-16.384 0-29.696 13.312-29.696 29.696v71.68c0 16.384 13.312 29.696 29.696 29.696h36.864c16.384 0 29.696-13.312 29.696-29.696v-71.68c0-16.384-13.312-29.696-29.696-29.696h-36.864z" fill="#1C1C1C" p-id="4496"></path><path d="M414.72 626.688m-32.768 0a32.768 32.768 0 1 0 65.536 0 32.768 32.768 0 1 0-65.536 0Z" fill="#FFEBE6" p-id="4497"></path><path d="M414.72 669.696c-23.552 0-43.008-19.456-43.008-43.008s19.456-43.008 43.008-43.008 43.008 19.456 43.008 43.008-19.456 43.008-43.008 43.008z m0-65.536c-12.288 0-22.528 10.24-22.528 22.528s10.24 22.528 22.528 22.528 22.528-10.24 22.528-22.528-10.24-22.528-22.528-22.528z" fill="#1C1C1C" p-id="4498"></path><path d="M640 626.688m-32.768 0a32.768 32.768 0 1 0 65.536 0 32.768 32.768 0 1 0-65.536 0Z" fill="#FFEBE6" p-id="4499"></path><path d="M640 669.696c-23.552 0-43.008-19.456-43.008-43.008s19.456-43.008 43.008-43.008c23.552 0 43.008 19.456 43.008 43.008s-19.456 43.008-43.008 43.008z m0-65.536c-12.288 0-22.528 10.24-22.528 22.528s10.24 22.528 22.528 22.528 22.528-10.24 22.528-22.528-10.24-22.528-22.528-22.528zM532.48 820.224c-64.512 0-117.76-43.008-117.76-96.256 0-6.144 4.096-10.24 10.24-10.24s10.24 4.096 10.24 10.24c0 41.984 44.032 75.776 97.28 75.776s97.28-33.792 97.28-75.776c0-6.144 4.096-10.24 10.24-10.24s10.24 4.096 10.24 10.24c0 52.224-52.224 96.256-117.76 96.256zM414.72 443.392c-6.144 0-10.24-4.096-10.24-10.24v-59.392c0-6.144 4.096-10.24 10.24-10.24s10.24 4.096 10.24 10.24v59.392c0 5.12-5.12 10.24-10.24 10.24zM450.56 464.896c-6.144 0-10.24-4.096-10.24-10.24v-98.304c0-6.144 4.096-10.24 10.24-10.24s10.24 4.096 10.24 10.24v98.304c0 5.12-4.096 10.24-10.24 10.24zM665.6 475.136c-6.144 0-10.24-4.096-10.24-10.24v-80.896c0-6.144 4.096-10.24 10.24-10.24s10.24 4.096 10.24 10.24v80.896c0 6.144-4.096 10.24-10.24 10.24z" fill="#1C1C1C" p-id="4500"></path><path d="M489.472 464.896c-6.144 0-10.24-4.096-10.24-10.24v-97.28c0-6.144 4.096-10.24 10.24-10.24s10.24 4.096 10.24 10.24v97.28c0 5.12-4.096 10.24-10.24 10.24z" fill="#1C1C1C" p-id="4501"></path><path d="M629.76 457.728c-6.144 0-10.24-4.096-10.24-10.24V368.64c0-6.144 4.096-10.24 10.24-10.24s10.24 4.096 10.24 10.24v78.848c0 6.144-5.12 10.24-10.24 10.24z" fill="#1C1C1C" p-id="4502"></path><path d="M522.24 486.4c-6.144 0-10.24-4.096-10.24-10.24V357.376c0-6.144 4.096-10.24 10.24-10.24s10.24 4.096 10.24 10.24v118.784c0 5.12-5.12 10.24-10.24 10.24z" fill="#1C1C1C" p-id="4503"></path><path d="M596.992 486.4c-6.144 0-10.24-4.096-10.24-10.24V357.376c0-6.144 4.096-10.24 10.24-10.24s10.24 4.096 10.24 10.24v118.784c0 5.12-4.096 10.24-10.24 10.24z" fill="#1C1C1C" p-id="4504"></path><path d="M565.248 486.4c-6.144 0-10.24-4.096-10.24-10.24V357.376c0-6.144 4.096-10.24 10.24-10.24s10.24 4.096 10.24 10.24v118.784c0 5.12-5.12 10.24-10.24 10.24z" fill="#1C1C1C" p-id="4505"></path></svg>