<svg width="64" height="64" viewBox="0 0 64 64" xmlns="http://www.w3.org/2000/svg">
  <defs>
    <linearGradient id="bg" x1="0" y1="0" x2="1" y2="1">
      <stop offset="0" stop-color="#FFF2F5"/>
      <stop offset="1" stop-color="#FFE6D6"/>
    </linearGradient>
    <linearGradient id="cake" x1="0" y1="0" x2="0" y2="1">
      <stop offset="0" stop-color="#FFFFFF"/>
      <stop offset="1" stop-color="#F7F7FB"/>
    </linearGradient>
    <linearGradient id="frost" x1="0" y1="0" x2="1" y2="0">
      <stop offset="0" stop-color="#FF7A9A"/>
      <stop offset="1" stop-color="#FFB36B"/>
    </linearGradient>
  </defs>
  <circle cx="32" cy="32" r="28" fill="url(#bg)"/>
  <path d="M18 30c0-7 6.2-12 14-12s14 5 14 12v2H18v-2z" fill="url(#cake)"/>
  <path d="M18 34h28v14c0 2.8-2.2 5-5 5H23c-2.8 0-5-2.2-5-5V34z" fill="url(#cake)"/>
  <path d="M18 34h28v5H18v-5z" fill="url(#frost)"/>
  <circle cx="24" cy="36.5" r="1.3" fill="#FFFFFF" opacity="0.9"/>
  <circle cx="32" cy="36.5" r="1.3" fill="#FFFFFF" opacity="0.9"/>
  <circle cx="40" cy="36.5" r="1.3" fill="#FFFFFF" opacity="0.9"/>
  <rect x="29.5" y="12" width="5" height="10" rx="2.2" fill="#8FD3FF"/>
  <path d="M32 8c2 2 2.5 4.2 0 6.2C29.5 12.2 30 10 32 8z" fill="#FF7A7A"/>
  <path d="M27 46c2.6 1.8 7.4 1.8 10 0" fill="none" stroke="#FF88A6" stroke-width="2.2" stroke-linecap="round"/>
</svg>
