<?xml version="1.0" standalone="no"?><!DOCTYPE svg PUBLIC "-//W3C//DTD SVG 1.1//EN" "http://www.w3.org/Graphics/SVG/1.1/DTD/svg11.dtd"><svg t="1735359283816" class="icon" viewBox="0 0 1024 1024" version="1.1" xmlns="http://www.w3.org/2000/svg" p-id="4422" xmlns:xlink="http://www.w3.org/1999/xlink" width="200" height="200"><path d="M210.804364 726.155636l101.376 106.123637-42.077091 40.168727-101.352728-106.100364z" fill="#5AC2EE" p-id="4423"></path><path d="M590.568727 99.048727L265.751273 438.923636C238.266182 467.735273 225.512727 507.601455 221.928727 558.545455l-0.605091 10.472727a560.570182 560.570182 0 0 0-0.302545 39.610182l1.326545 43.822545c0.069818 2.792727 0.093091 5.026909 0.093091 7.121455l-0.046545 4.654545c0-0.535273-0.046545-0.279273-0.372364 0.558546-1.000727 2.56-2.978909 6.027636-5.632 9.774545-3.258182 4.608-6.609455 8.471273-8.494545 10.379636l-131.444364 137.565091c-40.773818 42.635636-43.543273 110.08-4.584727 150.877091 39.749818 41.588364 106.449455 38.562909 147.874909-4.770909l131.258182-137.355636c2.094545-2.257455 5.771636-5.748364 10.100363-9.122909 3.490909-2.746182 6.679273-4.747636 9.099637-5.794909l-0.046546-0.046546 11.426909 0.139636 34.606546 1.303273c22.341818 0.721455 37.608727 0.605091 54.737454-0.721454 48.779636-3.793455 87.365818-17.454545 115.223273-46.615273l324.817455-339.874909c95.464727-99.909818 100.840727-208.896 3.374545-310.877091l-23.04-24.133818c-98.257455-102.795636-204.613818-97.047273-300.730182 3.537454zM849.221818 135.68l23.04 24.133818c75.054545 78.522182 71.447273 152.203636-3.374545 230.493091L544.116364 730.205091c-16.197818 16.942545-41.821091 26.018909-77.661091 28.788364l-8.750546 0.581818a433.338182 433.338182 0 0 1-34.187636 0.162909l-39.982546-1.466182c-6.516364-0.209455-10.402909-0.232727-15.429818-0.116364-7.191273 0.139636-14.033455 1.861818-20.805818 4.724364a98.583273 98.583273 0 0 0-21.992727 13.405091c-5.701818 4.468364-10.519273 8.843636-14.126546 12.497454l-133.469091 139.636364c-19.316364 20.177455-47.802182 21.457455-63.767272 4.770909-16.709818-17.477818-15.36-49.617455 4.584727-70.493091l131.258182-137.355636 4.072727-4.421818c3.025455-3.421091 6.493091-7.749818 10.007273-12.706909a104.261818 104.261818 0 0 0 12.404363-22.341819c2.653091-6.818909 4.189091-13.637818 4.328728-20.642909l0.046545-7.284363c0-3.700364-0.116364-7.842909-0.302545-14.033455l-0.954182-29.602909c-0.605091-21.713455-0.465455-36.119273 0.605091-51.665454 2.722909-38.702545 11.613091-66.490182 27.857454-83.502546L632.622545 139.240727c74.146909-77.591273 142.312727-81.268364 216.599273-3.537454z" fill="#5AC2EE" p-id="4424"></path><path d="M661.876364 169.448727l-187.345455 196.072728c-35.025455 36.654545-35.025455 95.906909 0 132.584727l51.432727 53.853091a89.739636 89.739636 0 0 0 130.327273 0.023272l187.392-196.072727c35.025455-36.654545 35.025455-95.930182 0-132.584727L792.203636 169.472a89.693091 89.693091 0 0 0-130.327272 0z m88.250181 40.192l51.502546 53.876364c13.521455 14.173091 13.521455 38.027636 0 52.200727l-187.368727 196.049455a31.557818 31.557818 0 0 1-46.196364 0l-51.456-53.853091c-13.544727-14.173091-13.544727-38.027636 0-52.200727l187.345455-196.072728a31.534545 31.534545 0 0 1 46.17309 0z" fill="#5AC2EE" p-id="4425"></path><path d="M588.8 383.069091l50.734545 53.061818-42.053818 40.192-50.734545-53.015273zM654.219636 314.717091l50.664728 53.038545-42.077091 40.192-50.664728-53.061818zM452.514909 555.310545a39.424 39.424 0 1 0 0 78.871273 39.424 39.424 0 0 0 0-78.871273z m0 20.689455a18.757818 18.757818 0 1 1 0 37.492364 18.757818 18.757818 0 0 1 0-37.492364z" fill="#5AC2EE" p-id="4426"></path></svg>