<?xml version="1.0" standalone="no"?><!DOCTYPE svg PUBLIC "-//W3C//DTD SVG 1.1//EN" "http://www.w3.org/Graphics/SVG/1.1/DTD/svg11.dtd"><svg t="1738677312806" class="icon" viewBox="0 0 1024 1024" version="1.1" xmlns="http://www.w3.org/2000/svg" p-id="11116" xmlns:xlink="http://www.w3.org/1999/xlink" width="200" height="200"><path d="M511.20355555 3.18577778C230.05866667 3.18577778 2.27555555 231.08266667 2.27555555 512.11377778s227.78311111 509.04177778 508.928 509.04177777 508.928-227.89688889 508.928-508.928S792.34844445 3.18577778 511.20355555 3.18577778z m4.55111112 980.08177777c-261.34755555 0-473.20177778-211.968-473.20177778-473.20177777S254.40711111 36.864 515.75466667 36.864s473.20177778 211.85422222 473.20177778 473.20177778S777.10222222 983.26755555 515.75466667 983.26755555z m-71.45244445-544.31288888c0 8.87466667-7.168 16.04266667-16.04266667 16.04266666-8.76088889 0-15.92888889-7.05422222-16.04266666-15.81511111h-0.22755556v-0.45511111c0-62.464-50.63111111-113.09511111-113.09511111-113.09511111-62.464 0-113.09511111 50.63111111-113.09511111 113.09511111v0.45511111c-0.11377778 8.76088889-7.28177778 15.81511111-16.04266666 15.81511111s-15.92888889-7.05422222-16.04266667-15.81511111v-0.11377777-0.11377778-0.11377778c0-80.21333333 64.96711111-145.18044445 145.18044444-145.18044444 79.41688889 0 143.81511111 63.71555555 145.18044445 142.67733333 0.11377778 0.79644445 0.22755555 1.70666667 0.22755555 2.61688889z m430.76266667 0c0 8.87466667-7.168 16.04266667-16.04266667 16.04266666-8.76088889 0-15.92888889-7.05422222-16.04266667-15.81511111h-0.22755555v-0.45511111c0-62.464-50.63111111-113.09511111-113.09511111-113.09511111-62.464 0-113.09511111 50.63111111-113.09511111 113.09511111v0.45511111c-0.11377778 8.76088889-7.28177778 15.81511111-16.04266667 15.81511111s-15.92888889-7.05422222-16.04266666-15.81511111v-0.11377777-0.11377778-0.11377778c0-80.21333333 64.96711111-145.18044445 145.18044444-145.18044444 79.41688889 0 143.81511111 63.71555555 145.18044444 142.67733333 0.11377778 0.79644445 0.22755555 1.70666667 0.22755556 2.61688889z m-89.20177778 145.52177778c-0.68266667 0-1.36533333 0-2.048 0.11377777l-541.24088889 0.34133333c-1.25155555-0.34133333-2.61688889-0.45511111-3.86844444-0.4551111-9.67111111 0-17.52177778 7.85066667-17.52177778 17.408 0.68266667 136.41955555 130.73066667 258.16177778 291.15733333 258.16177777s290.47466667-121.856 291.15733334-258.27555555c-0.11377778-9.44355555-7.85066667-17.29422222-17.63555556-17.29422222zM512.34133333 832.62577778c-126.17955555 0-243.02933333-106.04088889-254.976-213.44711111l510.06577778-0.34133334c-11.83288889 107.52-128.79644445 213.78844445-255.08977778 213.78844445z" p-id="11117"></path></svg>