<?xml version="1.0" standalone="no"?><!DOCTYPE svg PUBLIC "-//W3C//DTD SVG 1.1//EN" "http://www.w3.org/Graphics/SVG/1.1/DTD/svg11.dtd"><svg t="1738855205720" class="icon" viewBox="0 0 1024 1024" version="1.1" xmlns="http://www.w3.org/2000/svg" p-id="4203" xmlns:xlink="http://www.w3.org/1999/xlink" width="200" height="200"><path d="M260.224 252.501333C116.736 252.501333 0 368.896 0 512s116.736 259.498667 260.224 259.498667H763.733333C907.264 771.498667 1024 655.104 1024 512s-116.736-259.498667-260.224-259.498667zM255.018667 334.933333c21.034667 0.512 43.52 10.666667 54.314666 26.581334 15.701333 19.584 20.394667 45.525333 38.186667 63.701333 23.893333 26.112 51.157333 49.066667 73.216 76.885333 20.906667 25.386667 35.797333 55.210667 48.810667 85.248 5.290667 9.941333 5.333333 22.186667 13.226666 30.72 3.84 5.12 22.784 19.114667 18.688 24.064 2.346667 5.12 20.053333 12.202667 13.909334 17.152-8.277333 1.706667-17.621333 2.048-23.978667-4.565333-2.304 5.376-7.765333 2.56-11.989333 1.834667a170.666667 170.666667 0 0 0-1.066667 3.157333c-14.08 0.938667-24.576-13.354667-31.232-24.106667-13.269333-7.168-28.373333-11.52-41.898667-19.029333-0.810667 12.373333 1.92 27.648-9.856 35.626667-0.597333 23.765333 35.968 2.816 39.338667 20.48-2.602667 0.298667-5.504-0.384-7.594667 1.621333-9.514667 9.258667-20.48-7.04-31.488-0.298667-14.762667 7.424-16.213333 13.482667-34.56 15.018667-0.981333-1.536-0.597333-2.56 0.256-3.456 5.12-5.973333 5.546667-13.013333 14.336-15.573333-9.045333-1.408-16.64 3.584-24.277333 7.509333-9.898667 4.053333-9.813333-9.130667-25.088 0.725333-1.706667-1.408-0.853333-2.645333 0.085333-3.712 3.882667-4.693333 8.96-5.418667 14.72-5.12-28.288-15.786667-41.6 19.2-54.656 1.834667-3.925333 1.024-5.418667 4.522667-7.893333 7.04-2.133333-2.346667-0.512-5.162667-0.426667-7.936-2.56-1.194667-5.76-1.749333-4.992-5.845333-4.992-1.706667-8.533333 1.28-12.202666 4.096-3.413333-2.602667 2.261333-6.4 3.285333-9.088 2.986667-5.162667 9.813333-1.066667 13.269333-4.778667 9.813333-5.589333 23.552 3.413333 34.816 1.92 8.661333 1.109333 19.370667-7.765333 15.018667-16.64-9.258667-11.818667-7.637333-27.264-7.808-41.386667-1.152-8.192-20.949333-18.688-26.709333-27.562666-7.082667-7.978667-12.586667-17.237333-18.090667-26.368-19.925333-38.4-13.653333-87.808-38.741333-123.52-11.349333 6.272-26.112 3.328-35.882667-5.077334-5.290667 4.821333-5.546667 11.093333-5.973333 17.792-12.629333-12.672-11.050667-36.522667-0.896-50.602666 4.096-5.546667 9.045333-10.112 14.592-14.165334 1.237333-0.853333 1.664-1.749333 1.621333-3.157333 4.992-22.485333 24.576-31.573333 45.653333-31.018667m529.365334 19.626667c23.765333 0 46.08 9.216 62.848 25.941333s26.026667 39.04 26.026666 62.72a87.893333 87.893333 0 0 1-26.026666 62.72v0.042667l-38.485334 38.4a88.746667 88.746667 0 0 1-36.693333 22.016l-0.682667 0.213333-0.213333 0.682667a87.466667 87.466667 0 0 1-20.224 31.189333l-38.485333 38.4c-16.810667 16.725333-39.125333 25.941333-62.933334 25.941334s-46.08-9.216-62.890666-25.941334a88.618667 88.618667 0 0 1 0-125.44l38.485333-38.4a87.722667 87.722667 0 0 1 36.608-21.930666l0.725333-0.256 0.256-0.682667a88.32 88.32 0 0 1 20.266667-31.274667l38.485333-38.4a88.490667 88.490667 0 0 1 62.890667-25.941333z m0 38.272a50.346667 50.346667 0 0 0-35.84 14.762667l-38.442667 38.4a50.389333 50.389333 0 0 0-14.634667 39.424l0.213334 2.474666c1.408 11.306667 6.4 21.504 14.421333 29.482667 5.546667 5.546667 11.648 9.045333 19.072 11.477333a38.4 38.4 0 0 1 0.597333 6.741334 37.717333 37.717333 0 0 1-11.093333 26.88l-2.389333 2.389333a83.797333 83.797333 0 0 1-33.28-20.48 87.893333 87.893333 0 0 1-24.576-46.762667l-0.426667-2.474666-1.962667 1.578666a46.933333 46.933333 0 0 0-3.712 3.413334l-38.528 38.357333a50.432 50.432 0 0 0 35.84 86.144c12.970667 0 25.898667-4.949333 35.754667-14.762667l38.485333-38.4a50.432 50.432 0 0 0 0-71.381333 49.92 49.92 0 0 0-18.602666-11.733333 42.666667 42.666667 0 0 1-0.597334-6.826667c0-11.093333 4.352-21.589333 12.373334-29.568a88.064 88.064 0 0 1 58.538666 67.925333l0.426667 2.474667 1.92-1.621333a46.933333 46.933333 0 0 0 3.84-3.413334l38.442667-38.357333a50.474667 50.474667 0 0 0 0-71.381333 50.346667 50.346667 0 0 0-35.84-14.762667zM358.826667 612.864c-3.413333 13.184-4.48 35.541333-21.589334 36.181333-1.408 7.552 5.248 10.410667 11.306667 7.978667 6.016-2.730667 8.874667 2.176 10.922667 7.082667 9.301333 1.365333 23.04-3.114667 23.552-14.08-13.866667-7.978667-18.176-23.125333-24.192-37.12" p-id="4204"></path></svg>