<?xml version="1.0" standalone="no"?><!DOCTYPE svg PUBLIC "-//W3C//DTD SVG 1.1//EN" "http://www.w3.org/Graphics/SVG/1.1/DTD/svg11.dtd"><svg t="1735352809370" class="icon" viewBox="0 0 1024 1024" version="1.1" xmlns="http://www.w3.org/2000/svg" p-id="1929" xmlns:xlink="http://www.w3.org/1999/xlink" width="200" height="200"><path d="M176.816708 54.661664C64.729487 133.138124 28.816991 282.633062 92.422796 403.283823l1.957381 3.651965 58.485805 106.994407 16.583363-11.617416-10.394053-14.843469 430.542159-301.463788 10.403115 14.843469 16.583363-11.617416-80.542584-91.543787C446.654301-3.914761 296.280354-23.92354 183.504425 50.112566l-3.407292 2.274549-3.289487 2.265487z m20.679363 29.768495l3.062938-2.111433c96.926584-65.717239 227.400496-49.931327 305.904141 36.664637l2.356107 2.646088 53.800778 61.140956-397.366371 278.238018-39.056991-71.462513C69.894796 286.565947 98.322124 158.248779 191.823292 88.535221l2.854513-2.093309 2.809204-2.002691z" fill="#A3D6CC" p-id="1930"></path><path d="M223.594478 121.466336a63.433628 63.433628 0 0 1 86.722832 13.366372l1.39554 1.903009 2.066123 2.936071a72.495575 72.495575 0 0 1 10.203753 21.268389l0.761203 2.528283c0.362478 1.141805 0.679646 2.102372 0.960567 2.881699l1.395539 3.615717c1.948319 4.775646 4.259115 9.424425 6.93239 13.919151l0.226548 0.335292 0.734018-0.299045c68.073345-27.430513 145.235823-22.654867 209.584708 12.795469a18.123894 18.123894 0 0 1 1.640213 30.72L212.828885 460.890619a18.123894 18.123894 0 0 1-28.30046-12.052389l-0.598089-4.032566c-9.895646-71.299398 12.106761-143.713416 60.261947-197.278584l0.543717-0.607151-0.181239-0.217487a103.904283 103.904283 0 0 0-13.375434-13.647292 93.338053 93.338053 0 0 0-4.839079-3.751646 72.495575 72.495575 0 0 1-16.492744-16.855221l-1.830513-2.627964-1.313982-1.948319c-18.459186-28.907611-10.964956-66.88623 16.891469-86.396602z m20.788106 29.696a27.185841 27.185841 0 0 0-7.340177 36.864l0.888071 1.313983 1.622088 2.310796a36.247788 36.247788 0 0 0 8.246372 8.427611l3.035752 2.28361c1.413664 1.087434 2.664212 2.084248 3.76977 3.026691a140.641416 140.641416 0 0 1 28.99823 33.828247 18.123894 18.123894 0 0 1-2.809203 22.482691l-2.664213 2.646088c-38.721699 39.038867-59.990088 91.616283-60.261947 145.661735v3.090124l281.73593-197.278585-2.908885-1.060247c-52.033699-18.622301-110.138903-16.121204-160.885806 8.42761a18.123894 18.123894 0 0 1-22.06584-5.02938 140.623292 140.623292 0 0 1-22.102089-39.392283 124.728637 124.728637 0 0 1-2.455787-7.675469 36.247788 36.247788 0 0 0-5.101877-10.638726l-1.839575-2.618903-0.93338-1.268672c-8.590726-11.209628-24.983788-13.765097-36.927434-5.400921z" fill="#F0C0C0" p-id="1931"></path><path d="M180.577416 439.214442a81.557522 81.557522 0 0 0-21.377133 111.597877l1.359292 1.993628 20.779044 29.686938a45.200991 45.200991 0 0 0 31.816496 19.011965l21.621805 55.667539c12.877027 32.985487 24.829735 63.20708 35.867186 90.682903l7.476106 18.531681 9.107257 22.383009 1.966443 5.654655a343.157805 343.157805 0 0 0 28.58138 60.352567l3.516035 5.754336 3.262301 5.101876 0.65246 1.159929 1.033062 1.622089 2.337983 3.280424 2.763894 4.014443c106.795044 152.512566 315.120142 192.212956 470.34223 90.827894l4.685026-3.11731 4.567221-3.144496c155.792991-109.078655 193.653805-323.801487 84.566089-479.585416a343.239363 343.239363 0 0 0-61.331257-66.877168l-4.911575-4.014442-151.062655-133.709027a45.200991 45.200991 0 0 0-5.618407-34.671009l-1.30492-1.975504-20.797168-29.696a81.557522 81.557522 0 0 0-111.597876-21.377133l-1.993629 1.359292-356.30669 249.475399zM248.025487 591.110796l408.349451-285.922548 149.54931 132.33161a307.471858 307.471858 0 0 1 52.396177 53.71016l3.787894 5.07469 3.697274 5.16531c96.62754 138.004389 64.394195 327.68-71.390018 426.074619l-4.150371 2.954195-4.322549 2.98138c-137.786903 93.184-324.617062 59.962903-421.906124-74.344212l-2.917947-4.096-2.854513-4.14131-1.921133-2.70046-1.060248-1.785203a307.625912 307.625912 0 0 1-31.807433-63.768921l-2.120496-6.089628-0.398726-1.078372-9.669097-23.742301c-12.414867-30.692814-26.107469-65.182584-41.077805-103.460247l-12.242691-31.444956-9.940955-25.717806z m-46.650903-122.209415L557.672212 219.41692a45.309735 45.309735 0 0 1 61.938407 9.54223l1.168992 1.585841 20.788106 29.686938a9.061947 9.061947 0 0 1-1.39554 11.96177l-0.833699 0.661522-415.689628 291.069735a9.061947 9.061947 0 0 1-11.96177-1.39554l-0.661522-0.824637-20.788107-29.696a45.309735 45.309735 0 0 1 9.54223-61.938407l1.585841-1.168991z" fill="#04AC9A" p-id="1932"></path></svg>