<?xml version="1.0" standalone="no"?><!DOCTYPE svg PUBLIC "-//W3C//DTD SVG 1.1//EN" "http://www.w3.org/Graphics/SVG/1.1/DTD/svg11.dtd"><svg t="1735352790016" class="icon" viewBox="0 0 1024 1024" version="1.1" xmlns="http://www.w3.org/2000/svg" p-id="1767" xmlns:xlink="http://www.w3.org/1999/xlink" width="200" height="200"><path d="M249.5 690h-62.4c-52.3 0-94.7-42.4-94.7-94.7 0-52.3 42.4-94.7 94.7-94.7h62.4m526.1 0h61.3c52.3 0 94.7 42.4 94.7 94.7 0 52.3-42.4 94.7-94.7 94.7h-64.5" fill="#FF9DB0" p-id="1768"></path><path d="M836.9 708.5h-64.5c-10.2 0-18.5-8.3-18.5-18.5s8.3-18.5 18.5-18.5h64.5c42.1 0 76.3-34.2 76.3-76.3S878.9 519 836.9 519h-61.3c-10.2 0-18.5-8.3-18.5-18.5s8.3-18.5 18.5-18.5h61.3c62.4 0 113.2 50.8 113.2 113.2s-50.8 113.3-113.2 113.3z m-587.4 0h-62.4c-62.4 0-113.2-50.8-113.2-113.2s50.8-113.2 113.2-113.2h62.4c10.2 0 18.5 8.3 18.5 18.5s-8.3 18.5-18.5 18.5h-62.4c-42.1 0-76.3 34.2-76.3 76.3s34.2 76.3 76.3 76.3h62.4c10.2 0 18.5 8.3 18.5 18.5 0 10-8.3 18.3-18.5 18.3z" fill="#078FBC" p-id="1769"></path><path d="M763 459.4l6.2 257.3c0 142-115.1 257.2-257.2 257.2h-0.1c-142 0-257.2-115.1-257.2-257.2l6.2-257.3" fill="#61FFCB" p-id="1770"></path><path d="M512.1 992.4c-152.1 0-275.8-123.7-275.8-275.7l6.2-257.8c0.2-10.2 8.7-18.2 18.9-18 10.2 0.2 18.3 8.7 18 18.9l-6.2 257.3c0 131.2 107.1 238.3 238.7 238.3 131.8 0 238.9-107.1 238.9-238.7l-6.2-256.9c-0.2-10.2 7.8-18.7 18-18.9 10-0.2 18.7 7.8 18.9 18l6.2 257.3c0 152.5-123.6 276.2-275.6 276.2z" fill="#078FBC" p-id="1771"></path><path d="M739.6 389.9v-113c-0.3-125.6-102.4-227.1-228-226.8-125.1 0.3-226.4 101.7-226.8 226.8V390h454.8z" fill="#FFE3C1" p-id="1772"></path><path d="M739.6 408.4H284.9c-10.2 0-18.5-8.3-18.5-18.5v-113C266.8 142 376.8 32 511.6 31.6h0.7c135.3 0 245.5 109.8 245.8 245.2v113.1c0 10.2-8.3 18.5-18.5 18.5z m-436.2-36.9h417.8v-94.6c-0.3-114.9-94-208.3-208.9-208.3h-0.6c-114.6 0.3-208 93.8-208.3 208.3v94.6z" fill="#078FBC" p-id="1773"></path><path d="M269.6 369.6h488c18.7 0 33.8 15.1 33.8 33.8v5.8c0 18.7-15.1 33.8-33.8 33.8h-488c-18.7 0-33.8-15.1-33.8-33.8v-5.8c0-18.6 15.1-33.8 33.8-33.8z" fill="#FFE3C1" p-id="1774"></path><path d="M269.6 461.5c-14 0-27.1-5.4-37-15.3-9.9-9.9-15.3-23-15.3-37v-5.8c0-28.8 23.5-52.3 52.3-52.3h488c28.8 0 52.3 23.5 52.3 52.3v5.8c0 28.8-23.5 52.3-52.3 52.3h-488z m0-73.4c-4.1 0-8 1.6-10.9 4.5-2.9 2.9-4.5 6.8-4.5 10.9v5.8c0 4.1 1.6 8 4.5 10.9 2.9 2.9 6.8 4.5 10.9 4.5h488c8.5 0 15.4-6.9 15.4-15.4v-5.8c0-8.5-6.9-15.4-15.4-15.4h-488z" fill="#078FBC" p-id="1775"></path><path d="M361.1 597.7h157.3" fill="#FEC69F" p-id="1776"></path><path d="M518.4 616.1H361.1c-10.2 0-18.5-8.3-18.5-18.5s8.3-18.5 18.5-18.5h157.3c10.2 0 18.5 8.3 18.5 18.5s-8.3 18.5-18.5 18.5z" fill="#078FBC" p-id="1777"></path><path d="M361.1 687.5H586" fill="#FEC69F" p-id="1778"></path><path d="M586 706H361.1c-10.2 0-18.5-8.3-18.5-18.5s8.3-18.5 18.5-18.5H586c10.2 0 18.5 8.3 18.5 18.5S596.2 706 586 706z" fill="#078FBC" p-id="1779"></path><path d="M361.1 776.2H586" fill="#FEC69F" p-id="1780"></path><path d="M586 794.7H361.1c-10.2 0-18.5-8.3-18.5-18.5s8.3-18.5 18.5-18.5H586c10.2 0 18.5 8.3 18.5 18.5s-8.3 18.5-18.5 18.5z" fill="#078FBC" p-id="1781"></path><path d="M613.5 292.5h-36.6c13.9-15.4 22.4-35.8 22.4-58.2 0-48.1-39-87.1-87.1-87.1-48.1 0-87.1 39-87.1 87.1 0 22.4 8.5 42.7 22.4 58.2h-36.8c-18.7 0-33.8 15.2-33.8 33.8v0.2c0 18.7 15.2 33.8 33.8 33.8h202.9c18.7 0 33.8-15.2 33.8-33.8v-0.2c-0.1-18.7-15.2-33.9-33.9-33.8z" fill="#FF9DB0" p-id="1782"></path><path d="M410.5 378.8c-14 0-27.1-5.4-37-15.3-9.9-9.9-15.3-23-15.3-37 0-29.1 23.5-52.6 52.3-52.6h3.7c-5.1-12.5-7.8-26-7.8-39.7 0-58.2 47.4-105.6 105.6-105.6 58.2 0 105.6 47.4 105.6 105.6 0 13.7-2.7 27.2-7.8 39.7h3.6c14 0 27.1 5.4 37 15.3 9.9 9.9 15.3 23 15.3 37 0 29.1-23.5 52.6-52.3 52.6H410.5z m0-67.9c-4.1 0-8 1.6-10.9 4.5-2.9 2.9-4.5 6.8-4.5 10.9 0 4.3 1.6 8.2 4.5 11.1s6.8 4.5 10.9 4.5h202.9c8.5 0 15.4-6.9 15.4-15.4 0-4.3-1.6-8.2-4.5-11.1s-6.8-4.5-10.9-4.5h-36.6c-7.3 0-13.9-4.3-16.9-11-3-6.7-1.7-14.4 3.1-19.9 11.4-12.7 17.7-28.9 17.7-45.8 0-37.9-30.8-68.7-68.7-68.7-37.8 0-68.6 30.8-68.7 68.7 0 16.9 6.3 33.1 17.6 45.8 4.9 5.4 6.1 13.2 3.1 19.9-3 6.7-9.6 11-16.9 11h-36.6z" fill="#078FBC" p-id="1783"></path></svg>