<?xml version="1.0" standalone="no"?><!DOCTYPE svg PUBLIC "-//W3C//DTD SVG 1.1//EN" "http://www.w3.org/Graphics/SVG/1.1/DTD/svg11.dtd"><svg t="1739259916229" class="icon" viewBox="0 0 1024 1024" version="1.1" xmlns="http://www.w3.org/2000/svg" p-id="11371" xmlns:xlink="http://www.w3.org/1999/xlink" width="200" height="200"><path d="M511.956693 1024A390.230201 390.230201 0 0 1 122.475494 633.769799C122.475494 437.531195 448.291497 54.791017 485.741612 11.348883a35.952111 35.952111 0 0 1 52.430161 0c37.450115 43.442134 363.266118 426.182312 363.266119 621.671914a393.22621 393.22621 0 0 1-389.481199 390.979203z m0-935.50388C403.351358 219.571524 192.132708 501.196391 192.132708 633.020797a319.823984 319.823984 0 1 0 639.647969 0c0-132.573408-211.21865-413.449273-319.823984-544.524677z m0 783.456412a208.971643 208.971643 0 0 1-210.469648-208.971643 35.203108 35.203108 0 1 1 69.657214 0 139.314429 139.314429 0 0 0 275.632849 0 35.203108 35.203108 0 0 1 35.203108-35.203109 34.454106 34.454106 0 0 1 39.697122 35.203109 208.971643 208.971643 0 0 1-211.21865 208.971643z" fill="#19224C" p-id="11372"></path></svg>