<?xml version="1.0" standalone="no"?><!DOCTYPE svg PUBLIC "-//W3C//DTD SVG 1.1//EN" "http://www.w3.org/Graphics/SVG/1.1/DTD/svg11.dtd"><svg t="1739259769881" class="icon" viewBox="0 0 1024 1024" version="1.1" xmlns="http://www.w3.org/2000/svg" p-id="4483" xmlns:xlink="http://www.w3.org/1999/xlink" width="200" height="200"><path d="M849.92 687.542857h-102.4c55.588571 0 102.4-45.348571 102.4-102.4 0-55.588571-46.811429-102.4-102.4-102.4h-131.657143c55.588571 0 102.4-45.348571 102.4-102.4 0-55.588571-46.811429-102.4-102.4-102.4h-204.8c-55.588571 0-102.4 46.811429-102.4 102.4s46.811429 102.4 102.4 102.4h-58.514286c-55.588571 0-102.4 46.811429-102.4 102.4v24.868572c48.274286 43.885714 96.548571 122.88 96.548572 179.931428 0 35.108571-8.777143 74.605714-40.96 102.4h545.645714c55.588571 0 102.4-45.348571 102.4-102.4-1.462857-55.588571-48.274286-102.4-103.862857-102.4z" fill="#EB7782" p-id="4484"></path><path d="M440.32 131.657143v146.285714h146.285714c0-80.457143-65.828571-146.285714-146.285714-146.285714zM305.737143 789.942857c0 80.457143-43.885714 102.4-117.028572 102.4-71.68 0-117.028571-21.942857-117.028571-102.4s99.474286-190.171429 117.028571-190.171428c19.017143 0 117.028571 109.714286 117.028572 190.171428zM952.32 349.622857c0 57.051429-30.72 71.68-81.92 71.68-49.737143 0-81.92-14.628571-81.92-71.68s70.217143-133.12 81.92-133.12c13.165714 0 81.92 76.068571 81.92 133.12z" fill="#FFCCD1" p-id="4485"></path><path d="M841.142857 848.457143h-117.028571c-16.091429 0-29.257143-13.165714-29.257143-29.257143s13.165714-29.257143 29.257143-29.257143h117.028571c16.091429 0 29.257143 13.165714 29.257143 29.257143s-13.165714 29.257143-29.257143 29.257143z" fill="#FFFFFF" p-id="4486"></path></svg>