<?xml version="1.0" standalone="no"?><!DOCTYPE svg PUBLIC "-//W3C//DTD SVG 1.1//EN" "http://www.w3.org/Graphics/SVG/1.1/DTD/svg11.dtd"><svg t="1737641554611" class="icon" viewBox="0 0 1024 1024" version="1.1" xmlns="http://www.w3.org/2000/svg" p-id="5250" xmlns:xlink="http://www.w3.org/1999/xlink" width="200" height="200"><path d="M366.31713 744.766507h524.451937l-21.246617-303.632256c-0.003197 0-401.128207-0.147058-503.20532 303.632256z" fill="#5FCEFF" p-id="5251"></path><path d="M943.262215 744.766507v159.84515h-863.16381v-159.84515h800.088914z" fill="#8B87C1" p-id="5252"></path><path d="M240.774749 499.8198c56.968811 0 103.16406 46.163279 103.16406 103.13209s-46.195248 103.16406-103.16406 103.16406-103.132091-46.195248-103.13209-103.16406 46.163279-103.132091 103.13209-103.13209z" fill="#FFB578" p-id="5253"></path><path d="M80.098405 986.676157a22.378321 22.378321 0 0 1-22.378321-22.378321v-529.183353a22.378321 22.378321 0 1 1 44.756642 0v529.183353a22.378321 22.378321 0 0 1-22.378321 22.378321zM943.259018 986.676157a22.378321 22.378321 0 0 1-22.378321-22.378321v-305.400143a22.378321 22.378321 0 1 1 44.756642 0v305.400143c0 12.362424-10.015897 22.378321-22.378321 22.378321z" fill="#4F46A3" p-id="5254"></path><path d="M943.259018 767.148025h-863.16381a22.378321 22.378321 0 1 1 0-44.756642h863.16381a22.378321 22.378321 0 1 1 0 44.756642z" fill="#4F46A3" p-id="5255"></path><path d="M240.774749 728.494271c-69.206556 0-125.510412-56.316643-125.510411-125.542381 0-69.203359 56.303856-125.510412 125.510411-125.510411 69.222541 0 125.542381 56.303856 125.542381 125.510411 0 69.225738-56.31984 125.542381-125.542381 125.542381z m0-206.29615c-44.526465 0-80.75377 36.224108-80.753769 80.753769 0 44.545646 36.227305 80.785739 80.753769 80.785739 44.545646 0 80.785739-36.240092 80.785739-80.785739 0-44.529662-36.240092-80.75377-80.785739-80.753769zM371.879742 766.7612a22.378321 22.378321 0 0 1-22.378322-22.378321c0-82.607974 58.106909-166.216578 159.419962-229.390578 102.352046-63.819775 234.201917-98.966526 371.265937-98.966526a22.378321 22.378321 0 1 1 0 44.756642c-128.803222 0-252.242041 32.739484-347.586476 92.185895-87.918029 54.817296-138.34278 124.589704-138.34278 191.41137a22.378321 22.378321 0 0 1-22.378321 22.381518z" fill="#4F46A3" p-id="5256"></path><path d="M880.187319 767.148025a22.378321 22.378321 0 0 1-22.378321-22.378321v-306.362411a22.378321 22.378321 0 1 1 44.756642 0v306.362411a22.378321 22.378321 0 0 1-22.378321 22.378321zM477.665262 429.487934h-167.837408a22.378321 22.378321 0 0 1-12.317667-41.061023l105.552146-69.58379H309.827854a22.378321 22.378321 0 1 1 0-44.756642h167.837408a22.378321 22.378321 0 0 1 12.317667 41.061022l-105.552146 69.583791h93.234479a22.378321 22.378321 0 1 1 0 44.756642zM636.612082 205.704724h-103.004215a22.378321 22.378321 0 0 1-12.31447-41.061023l40.71256-26.841197h-28.39809a22.378321 22.378321 0 1 1 0-44.756642h103.004215a22.378321 22.378321 0 0 1 12.31447 41.061022l-40.712559 26.841198h28.398089a22.378321 22.378321 0 1 1 0 44.756642zM868.38755 136.491774h-87.0197a22.378321 22.378321 0 0 1-12.31447-41.061023l24.715257-16.28822h-12.400787a22.378321 22.378321 0 1 1 0-44.756642h87.0197a22.378321 22.378321 0 0 1 12.31447 41.061022l-24.715257 16.288221h12.400787a22.378321 22.378321 0 1 1 0 44.756642zM943.259018 926.993175h-863.16381a22.378321 22.378321 0 1 1 0-44.756642h863.16381a22.378321 22.378321 0 1 1 0 44.756642z" fill="#4F46A3" p-id="5257"></path></svg>