<?xml version="1.0" standalone="no"?><!DOCTYPE svg PUBLIC "-//W3C//DTD SVG 1.1//EN" "http://www.w3.org/Graphics/SVG/1.1/DTD/svg11.dtd"><svg t="1737641560465" class="icon" viewBox="0 0 1024 1024" version="1.1" xmlns="http://www.w3.org/2000/svg" p-id="5409" xmlns:xlink="http://www.w3.org/1999/xlink" width="200" height="200"><path d="M990.527135 539.088102c0 64.639419-5.812897 128.871935-29.064487 185.024523-24.123524 58.128974-68.592189 105.3297-112.537693 149.217075a466.659401 466.659401 0 0 1-154.332425 99.981835c-56.152589 23.251589-115.211626 50.39782-179.851045 50.39782s-126.256131-20.810173-182.466848-44.119891c-58.128974-24.123524-107.189827-63.011807-151.135332-106.899182A469.333333 469.333333 0 0 1 76.623411 720.799273C53.313692 664.297911 33.201068 603.72752 33.201068 539.088102a484.214351 484.214351 0 0 1 36.504995-184.210718c24.181653-58.128974 65.743869-107.073569 109.631244-151.135331S273.564374 122.070845 331.809605 97.947321a476.192552 476.192552 0 0 1 182.699364-35.865577c64.639419 0 124.454133 17.438692 180.606722 40.980926 58.128974 24.123524 117.071753 50.630336 160.959128 94.517711s67.778383 103.760218 91.901907 161.947321c23.309718 56.210718 42.550409 114.97911 42.550409 179.5604z" fill="#FFD635" p-id="5410"></path><path d="M617.222866 961.627611c-60.919164 0-119.106267-19.647593-172.061762-41.620345-54.93188-22.786558-101.144414-59.407811-142.532244-100.853769a443.175295 443.175295 0 0 1-98.412352-143.520436c-21.972752-52.955495-40.690282-110.096276-40.690282-171.07357a457.126249 457.126249 0 0 1 34.179837-173.747502c22.786558-54.93188 62.198002-100.970027 103.411444-142.357856s88.879201-77.137148 143.752952-99.923706a440.559491 440.559491 0 0 1 87.77475-25.925522c-5.812897 0-12.032698-0.523161-18.13624-0.523161a476.192552 476.192552 0 0 0-182.699364 35.865577C273.564374 122.070845 223.224682 160.029064 179.337307 203.91644s-85.449591 93.006358-109.631244 151.135331A484.214351 484.214351 0 0 0 33.201068 539.088102c0 64.639419 20.112625 125.209809 43.422343 181.711171a469.333333 469.333333 0 0 0 104.632152 152.181653c43.887375 43.887375 93.006358 82.775658 151.135332 106.899183 56.210718 23.251589 117.885559 44.119891 182.466848 44.119891s123.698456-27.088102 179.851045-50.39782a486.306994 486.306994 0 0 0 126.372389-74.695731c-11.044505 5.464124-22.321526 10.695731-33.889192 15.520436-53.304269 21.449591-108.75931 47.200727-169.969119 47.200726z" fill="#F7B523" p-id="5411"></path><path d="M437.953111 186.012716s3.429609-2.673933 9.64941-6.859219a225.540418 225.540418 0 0 1 26.913715-15.636694 221.355132 221.355132 0 0 1 41.620345-15.811081A204.265213 204.265213 0 0 1 567.987625 140.672116h13.195277c4.127157 0 8.835604 0.290645 13.079019 0.58129s8.544959 0.930064 12.730246 1.511353 8.254314 1.453224 12.265213 2.325159a158.343324 158.343324 0 0 1 22.612171 7.033606 131.603996 131.603996 0 0 1 19.24069 9.300636 116.257947 116.257947 0 0 1 25.809264 19.996367 69.754768 69.754768 0 0 1 6.2198 7.266122 25.925522 25.925522 0 0 1 2.034515 2.848319s-4.882834 0.871935-12.788375 1.453225c-3.894641 0.348774-8.544959 0.406903-13.776566 0.639418s-10.928247 0-17.03179 0-12.613987-0.58129-19.415077-1.046321-13.834696-1.278837-21.100817-2.208901l-10.986376-1.511354-11.277021-1.801998-11.625795-1.918256-5.812897-1.162579a51.851045 51.851045 0 0 0-5.464124-0.697548 412.250681 412.250681 0 0 0-85.972752 0l-30.168937 2.557675-8.661217 0.174387z" fill="#FFEF57" p-id="5412"></path><path d="M679.944028 734.401453a74.288828 74.288828 0 0 1-3.95277 28.076295 90.216167 90.216167 0 0 1-16.101725 28.541326 92.657584 92.657584 0 0 1-24.472298 24.297911 85.449591 85.449591 0 0 1-41.969119 12.323342 122.594005 122.594005 0 0 1-44.468665-6.568574 87.891008 87.891008 0 0 1-31.505904-21.391462A86.554042 86.554042 0 0 1 500.558016 773.11535c-4.185286-8.835604-3.836512-18.310627-4.708447-28.425068a84.170754 84.170754 0 0 1 0.697548-29.645777 78.70663 78.70663 0 0 1 14.881017-26.739328c7.266122-9.591281 13.079019-18.775658 23.949137-24.879201a97.540418 97.540418 0 0 1 41.794732-14.997275 108.584923 108.584923 0 0 1 45.398728 9.358765 102.132607 102.132607 0 0 1 32.029065 21.391462 91.320618 91.320618 0 0 1 17.845595 26.913715 84.519528 84.519528 0 0 1 7.498637 28.30881zM261.589805 491.829246l1.68574 2.557675c1.162579 1.801998 2.441417 3.138965 4.53406 5.812897a100.970027 100.970027 0 0 0 19.298819 17.845595 125.674841 125.674841 0 0 0 15.055405 9.009991 128.697548 128.697548 0 0 0 18.368755 7.324251 123.524069 123.524069 0 0 0 20.693915 4.882834 137.591281 137.591281 0 0 0 21.914623 1.801998H374.243756c3.662125 0 7.38238-0.58129 10.986376-1.104451a194.092643 194.092643 0 0 0 20.984559-4.359673 161.366031 161.366031 0 0 0 18.601272-6.742961A124.744777 124.744777 0 0 0 440.103883 520.254314a87.19346 87.19346 0 0 0 19.24069-16.857402 75.974569 75.974569 0 0 0 5.812898-7.905541l0.406903-0.639418a12.090827 12.090827 0 0 1 21.972752 9.707538l-0.988193 3.42961a74.114441 74.114441 0 0 1-3.545867 9.358765 91.669391 91.669391 0 0 1-21.682107 29.064486 110.44505 110.44505 0 0 1-19.182562 14.299728 129.860127 129.860127 0 0 1-23.77475 11.277021 144.101726 144.101726 0 0 1-26.913715 7.091735c-4.650318 0.813806-9.416894 1.395095-14.183469 1.801998-2.383288 0-4.940963 0.348774-7.498638 0.465032a32.319709 32.319709 0 0 1-3.313351 0h-3.662126a168.22525 168.22525 0 0 1-28.715713-3.022707 159.854678 159.854678 0 0 1-26.855586-8.079927 134.336058 134.336058 0 0 1-23.251589-12.207085 119.571299 119.571299 0 0 1-18.543143-14.939146 101.318801 101.318801 0 0 1-20.810172-29.064487 78.415985 78.415985 0 0 1-3.836513-9.300636c-0.639419-1.918256-0.930064-2.964578-0.930063-2.964577a12.207084 12.207084 0 0 1 21.856494-10.463216z" fill="#943436" p-id="5413"></path><path d="M232.176544 413.413261l4.185286-6.975477c1.569482-2.26703 3.313351-5.231608 5.522253-8.312443s4.650318-6.568574 7.614896-10.172571 6.161671-7.498638 9.707538-11.625795 7.498638-8.079927 11.625795-12.032697 8.893733-7.963669 13.60218-11.974569 9.823797-7.673025 15.055404-11.102634 10.579473-6.80109 15.86921-10.056312 10.75386-5.812897 16.043596-8.544959 10.463215-5.057221 15.578565-6.917348 9.707539-4.069028 14.241599-5.464124l12.207084-4.010899 9.591281-2.673933 8.312443-2.208901a20.40327 20.40327 0 1 1 10.579473 39.411445l-2.208901 0.465031h-0.988192l-7.440509 1.16258-8.603088 1.278837-11.044505 2.325159c-4.069028 0.755677-8.254314 2.092643-12.846503 3.255223s-9.242507 2.964578-14.18347 4.475931-9.765668 3.720254-14.764759 5.812897-9.998183 4.417802-14.764759 7.149864-9.591281 5.405995-14.299728 8.196185-9.06812 5.812897-13.079019 9.126249-8.021798 6.336058-11.625795 9.416894-6.975477 6.2198-9.823796 9.242507-5.812897 5.812897-7.847412 8.312443-4.010899 4.766576-5.812897 6.568574L248.27827 424.341508a9.591281 9.591281 0 0 1-15.811081-10.75386z" fill="#F7B523" p-id="5414"></path><path d="M895.428134 502.292461l-0.930064 2.964578a78.415985 78.415985 0 0 1-3.836512 9.300636 101.725704 101.725704 0 0 1-20.868302 29.064487 119.571299 119.571299 0 0 1-18.543142 14.939146 134.336058 134.336058 0 0 1-23.25159 12.207084 160.84287 160.84287 0 0 1-26.797456 8.079928 168.574024 168.574024 0 0 1-28.715713 3.022706h-3.720255a32.552225 32.552225 0 0 1-3.313351 0c-2.557675 0-5.11535 0-7.440509-0.465031-4.824705-0.406903-9.533152-0.988193-14.241598-1.801999a145.322434 145.322434 0 0 1-26.913715-7.091734 129.860127 129.860127 0 0 1-23.77475-11.277021 112.828338 112.828338 0 0 1-19.182562-14.299728 91.669391 91.669391 0 0 1-21.682107-29.064487 72.138056 72.138056 0 0 1-3.603996-9.59128l-0.988193-3.42961a12.090827 12.090827 0 0 1 21.914623-9.765667l0.406903 0.697547a75.974569 75.974569 0 0 0 5.812897 7.905541 88.879201 88.879201 0 0 0 19.240691 16.857402 133.696639 133.696639 0 0 0 15.346049 8.312443 158.517711 158.517711 0 0 0 18.6594 6.742961 191.244323 191.244323 0 0 0 20.98456 4.359673c3.603996 0.523161 7.266122 0.871935 10.928247 1.104451H772.020323a137.06812 137.06812 0 0 0 21.914623-1.801998 124.221617 124.221617 0 0 0 20.752043-4.882834 130.673933 130.673933 0 0 0 18.310627-7.324251 126.604905 126.604905 0 0 0 15.113533-9.009991 100.330609 100.330609 0 0 0 19.240691-17.845595c2.092643-2.732062 3.37148-4.069028 4.534059-5.812897l1.74387-2.557675a12.207084 12.207084 0 0 1 21.856494 10.463215z" fill="#943436" p-id="5415"></path><path d="M887.115691 424.341508l-4.940963-6.394187c-1.569482-1.801998-3.255223-4.069028-5.812898-6.568574s-4.824705-5.405995-7.847411-8.312444-6.277929-5.812897-9.765668-9.242506-7.498638-6.394187-11.625794-9.416894-8.661217-5.812897-13.137148-9.126249-9.300636-5.812897-14.241599-8.196185-9.940054-4.824705-14.764759-7.149864-9.940054-4.069028-14.822888-5.812897-9.533152-3.37148-14.125341-4.475931-8.835604-2.499546-12.904632-3.255223l-10.986376-2.325159-8.603088-1.278837-7.498638-1.16258h-0.930064a20.40327 20.40327 0 1 1 5.812898-40.341508l2.26703 0.465032 8.370572 2.208901 9.533152 2.673933 12.265213 4.010899c4.475931 1.395095 9.184378 3.545867 14.241599 5.464124s10.17257 4.53406 15.520436 6.917348 10.695731 5.522252 16.101725 8.544959 10.695731 6.336058 15.811081 10.056312 10.230699 7.324251 15.055404 11.102634 9.416894 7.847411 13.60218 11.974569 8.138056 8.138056 11.625795 12.032697 6.917348 7.789282 9.765668 11.625795 5.405995 7.091735 7.556766 10.17257 4.010899 5.812897 5.812897 8.312444l4.185287 6.975476A9.591281 9.591281 0 0 1 887.115691 424.341508z" fill="#F7B523" p-id="5416"></path><path d="M75.51896 307.444142l134.336058-193.395096v-1.627611h-122.070844v-52.781108h204.555858v36.853769L161.08481 287.331517v1.68574h133.696639v52.722979H75.51896zM323.845936 186.012716L424.699705 40.690282v-1.16258H333.030314V0H486.607062v27.611262L387.787807 170.782925v1.220708h100.330608v39.585831H323.845936zM534.679723 200.48683l75.567666-108.75931v-0.930063H541.538942v-29.645777h115.095368v20.693915L582.694256 189.209809v0.930064h75.102633v29.645776H534.679723z" fill="#5FA5E1" p-id="5417"></path></svg>