<svg t="1735978388422" class="icon" viewBox="0 0 1024 1024" version="1.1" xmlns="http://www.w3.org/2000/svg" p-id="4372" width="128" height="128"><path d="M478.947936 111.12861m-79.09983 0a77.3 77.3 0 1 0 158.19966 0 77.3 77.3 0 1 0-158.19966 0Z" p-id="4373"></path><path d="M783.988808 290.203258c-2.251224-10.744479-9.925852-19.44239-20.261017-22.921555-51.675827-17.395823-102.840012-48.605976-141.622464-73.881083-12.381733-7.981613-28.447287-6.037374-38.475467 3.990806-35.405616 7.265314-92.91416 24.763466-125.045268 39.191766-11.358449-4.093135-24.45648-1.22794-33.052064 8.288598-34.893974 38.373139-61.294694 74.290397-84.523234 106.012191-31.517138 42.875587-56.382932 76.848606-87.695413 96.802638-14.223643 9.107225-18.419107 28.037973-9.311882 42.363945 5.832717 9.107225 15.758569 14.121315 25.889078 14.121315 5.62806 0 11.358449-1.534926 16.577196-4.707105 40.931348-26.196063 70.197262-66.104127 104.067952-112.254222 15.349256-20.874988 32.02878-43.694214 51.47117-67.434396 5.116419 13.712002 13.20036 28.754272 25.786749 44.410513 42.261617 52.801439 48.401319 105.909863 51.061857 134.459478l-109.696013 144.283002c-2.455881 3.172179-4.195463 6.753672-5.218747 10.64215-19.544719 73.062456-28.24263 135.58509-34.484661 181.121215-3.479165 25.684421-7.776956 56.894574-12.381733 68.764665-12.381733 4.297792-21.079644 16.270211-20.568002 30.084541 0.716299 16.577196 14.325972 29.572899 30.698511 29.572899 0.306985 0 0.716299 0 1.125612 0.102328 13.712002-0.511642 26.298391-6.958329 35.200959-18.21445 5.832717-7.265314 10.232837-16.474868 13.81433-28.8566 5.321075-18.112122 8.697911-42.363945 12.893375-72.960128 5.832717-42.773259 13.916658-100.895773 31.41481-167.920855l110.002998-144.692315c2.558209 0.102328 5.218747 0.102328 7.879285 0.102328l-66.001799 183.98641c-4.297792 12.074748-0.716299 25.479764 9.004897 33.768362 5.730389 4.911762 12.791046 7.367643 19.954032 7.367643 5.01409 0 10.130509-1.22794 14.735285-3.78615 23.535525-12.893375 46.764065-39.805736 69.276307-65.797142 9.618867-11.256121 23.22854-26.912361 32.131108-34.996303 8.083941 2.046567 16.986509 0.818627 24.558809-4.093135 14.223643-9.41421 18.112122-28.447287 8.80024-42.568602-7.162986-10.846807-18.316778-17.498151-30.800839-18.316778-15.246927-1.023284-28.8566 6.344359-43.182572 19.033077l30.289198-84.420905c1.432597-3.990806 1.944239-8.083941 1.739582-12.074748 16.474868-17.293495 5.423404-16.884181 5.423404-106.216848 0-36.940542-10.949136-87.593085-21.591286-129.547717 28.549615 16.781853 60.373738 33.563705 93.425802 46.354752 5.832717 28.958929 9.823524 52.187469 12.381733 70.606575 4.40012 32.02878 2.967523 41.238333 2.660538 42.466274-4.809433 16.167882 4.297792 33.154392 20.465674 38.066154 2.967523 0.920955 5.935045 1.330269 8.902568 1.330269 13.098031 0 25.275107-8.493255 29.368242-21.693614C808.95693 424.355751 800.361347 369.81473 783.988808 290.203258z" p-id="4374"></path><path d="M285.751974 604.556011m-81.555711 0a79.7 79.7 0 1 0 163.111422 0 79.7 79.7 0 1 0-163.111422 0Z" p-id="4375"></path></svg>