<?xml version="1.0" standalone="no"?><!DOCTYPE svg PUBLIC "-//W3C//DTD SVG 1.1//EN" "http://www.w3.org/Graphics/SVG/1.1/DTD/svg11.dtd"><svg t="1738680876449" class="icon" viewBox="0 0 1024 1024" version="1.1" xmlns="http://www.w3.org/2000/svg" p-id="12314" xmlns:xlink="http://www.w3.org/1999/xlink" width="200" height="200"><path d="M112 16h728v990.4H112z" fill="#FDBF5E" p-id="12315"></path><path d="M840 1024H112c-9.601 0-16.001-6.4-16.001-16V16c0-9.6 6.4-16 16-16H840c9.601 0 16.001 6.4 16.001 16v992.001c-0.002 7.999-8 15.999-16 15.999z m-712-32h696.001V32h-696v960z" fill="#193651" p-id="12316"></path><path d="M174.896 81.104h600v862.399h-600z" fill="#FFFFFF" p-id="12317"></path><path d="M164.8 134.4H59.2c-24 0-43.2 19.2-43.2 43.2s19.2 43.199 43.2 43.199h104a43.02 43.02 0 0 0 43.198-43.2c1.6-23.998-17.599-43.198-41.598-43.198z" fill="#FFFFFF" p-id="12318"></path><path d="M164.8 236.8H59.2C25.6 236.8 0 209.6 0 177.6s27.2-59.2 59.2-59.2h104c33.6 0 59.2 27.2 59.2 59.2s-25.6 59.2-57.6 59.2zM59.2 150.4c-16.001 0-27.2 12.8-27.2 27.2 0 16 12.8 27.2 27.2 27.2h104c16 0 27.2-12.8 27.2-27.2 0-16.001-12.8-27.2-27.2-27.2h-104z" fill="#193651" p-id="12319"></path><path d="M164.8 356.8H59.2A43.02 43.02 0 0 0 16 400a43.02 43.02 0 0 0 43.2 43.198h104A43.02 43.02 0 0 0 206.397 400c1.6-24-17.599-43.199-41.598-43.199z" fill="#FFFFFF" p-id="12320"></path><path d="M164.8 460.8H59.2C27.2 460.8 0 433.6 0 400s27.2-59.2 59.2-59.2h104c33.6 0 59.2 27.2 59.2 59.2s-25.6 60.8-57.6 60.8z m-105.6-88c-16.001 0-27.2 12.8-27.2 27.201 0 16.001 12.8 27.2 27.2 27.2h104c16 0 27.2-12.8 27.2-27.2 0-16-12.8-27.2-27.2-27.2h-104z" fill="#193651" p-id="12321"></path><path d="M164.8 579.2H59.2c-24 0-43.2 20.8-43.2 44.799a43.02 43.02 0 0 0 43.2 43.199h104a43.02 43.02 0 0 0 43.198-43.2C207.998 600 188.8 579.2 164.8 579.2z" fill="#FFFFFF" p-id="12322"></path><path d="M164.8 683.2H59.2C27.2 683.2 0 656 0 624c0-32 27.2-59.2 59.2-59.2h104c33.6 0 59.2 27.2 59.2 59.2 0 32.002-25.6 59.202-57.6 59.202z m-105.6-88C44.8 595.2 32 608 32 624s12.8 27.201 27.2 27.201h104c16 0 27.2-12.8 27.2-27.2 0-16-12.8-27.2-27.2-27.2h-104v-1.6z" fill="#193651" p-id="12323"></path><path d="M164.8 803.2H59.2A43.02 43.02 0 0 0 16 846.397a43.02 43.02 0 0 0 43.2 43.2h104a43.02 43.02 0 0 0 43.198-43.2c1.6-24-17.599-43.199-41.598-43.199z" fill="#FFFFFF" p-id="12324"></path><path d="M164.8 905.6H59.2C27.2 905.6 0 880 0 846.4s27.2-59.2 59.2-59.2h104c33.6 0 59.2 27.2 59.2 59.2s-25.6 59.2-57.6 59.2zM59.2 819.2C43.199 819.2 32 832 32 846.4c0 16.001 12.8 27.2 27.2 27.2h104c16 0 27.2-12.8 27.2-27.2 0-16-12.8-27.2-27.2-27.2h-104z" fill="#193651" p-id="12325"></path><path d="M942.4 758.4h-104v131.2h104c36.798 0 65.6-28.801 65.6-65.6 0-35.201-28.8-65.6-65.6-65.6z" fill="#4FBF9F" p-id="12326"></path><path d="M942.4 905.6h-104c-9.601 0-16.001-6.4-16.001-16V758.4c0-9.601 6.4-16.001 16-16.001h104c44.8 0 81.601 36.799 81.601 81.6S987.199 905.6 942.4 905.6z m-88-32h88.001c27.2 0 49.6-22.4 49.6-49.599 0-27.2-22.401-49.598-49.6-49.598h-88V873.6z" fill="#193651" p-id="12327"></path><path d="M838.4 758.4H596.8c-83.198 0-163.199 22.4-233.6 65.6 70.4 43.198 152 65.6 233.6 65.6h241.6V758.4z" fill="#FFFFFF" p-id="12328"></path><path d="M838.4 905.6H596.8c-84.799 0-169.599-24-241.598-68.8-4.8-3.202-8-8.001-8-14.401s3.2-11.2 8-14.4c73.6-44.8 156.799-68.801 241.599-68.801H838.4c9.6 0 16 6.4 16 16v131.2c0 12.802-8 19.202-16 19.202zM395.2 824c62.4 32 131.2 49.598 201.599 49.598h225.6v-99.2H596.8C526.399 774.4 456 792 395.2 824z" fill="#193651" p-id="12329"></path><path d="M361.6 840h-30.4c-9.6 0-16-6.4-16-16s6.4-16.001 16-16.001h30.4c9.6 0 16 6.4 16 16S371.2 840 361.6 840z m168-32h32v32h-32z m86.4 0h32v32h-32z m86.4 0h32v32h-32z" fill="#193651" p-id="12330"></path><path d="M288 144h86.4v86.4H288z m0 152h86.4v86.4H288z m0 150.4h86.4v86.4H288z m0 150.4h86.4v86.4H288z" fill="#F16051" p-id="12331"></path><path d="M715.2 204.8h-240c-9.601 0-16.001-6.4-16.001-16s6.4-16.002 16-16.002H713.6c9.601 0 16 6.4 16 16.001 1.6 8-6.401 16.001-14.4 16.001z m0 150.4h-240c-9.601 0-16.001-6.4-16.001-16.001s6.4-16.001 16-16.001H713.6c9.601 0 16 6.4 16 16 1.6 8.001-6.401 16.002-14.4 16.002z m0 150.399h-240c-9.601 0-16.001-6.4-16.001-16 0-9.602 6.4-16.002 16-16.002H713.6c9.601 0 16 6.4 16 16.001 1.6 9.601-6.401 16.001-14.4 16.001z m0 150.402h-240c-9.601 0-16.001-6.4-16.001-16.001s6.4-16.001 16-16.001H713.6c9.601 0 16 6.4 16 16 1.6 9.602-6.401 16.002-14.4 16.002z" fill="#193651" p-id="12332"></path></svg>