<?xml version="1.0" standalone="no"?><!DOCTYPE svg PUBLIC "-//W3C//DTD SVG 1.1//EN" "http://www.w3.org/Graphics/SVG/1.1/DTD/svg11.dtd"><svg t="1739971442188" class="icon" viewBox="0 0 1024 1024" version="1.1" xmlns="http://www.w3.org/2000/svg" p-id="12004" xmlns:xlink="http://www.w3.org/1999/xlink" width="200" height="200"><path d="M996.864 187.392c-33.792-17.92-96.256-43.008-164.352-37.376-89.6 7.68-143.872 96.256-111.104 161.28-12.8 11.264-25.6 24.576-37.888 40.448-87.552 111.616-95.744 244.736-95.744 244.736l42.496 84.992s8.704-162.816 74.24-276.48c13.824-23.552 27.648-44.032 40.96-61.44 60.928 58.88 142.336 1.536 182.272-45.056 33.28-38.4 57.344-62.464 72.704-76.8 11.776-9.728 9.728-27.648-3.584-34.304z" fill="#75BC3B" p-id="12005"></path><path d="M832.512 197.12c64.512-5.632 123.392 16.896 158.208 34.304 3.584-3.584 7.168-7.168 10.24-9.728 10.752-9.728 8.704-27.648-4.096-34.304-33.792-17.92-96.256-43.008-164.352-37.376-81.408 7.168-133.632 80.896-117.76 143.36 11.776-47.616 56.832-90.624 117.76-96.256zM683.52 399.36c12.288-15.872 25.088-29.184 37.888-40.448-6.144-12.288-9.216-25.088-9.728-37.888-9.728 9.216-18.944 19.456-28.16 31.232-87.552 111.616-95.744 244.736-95.744 244.736l5.12 10.24c8.704-48.128 31.744-132.608 90.624-207.872z" fill="#9CCB63" p-id="12006"></path><path d="M857.088 989.696c0 18.944-109.568 34.304-244.736 34.304s-244.736-15.36-244.736-34.304 109.568-34.304 244.736-34.304 244.736 15.36 244.736 34.304z" fill="#45403C" p-id="12007"></path><path d="M587.776 479.232C547.84 380.416 483.84 304.64 421.376 249.344c7.168-45.568 13.824-169.472-113.664-221.184-117.76-48.128-233.472-8.704-284.672 13.824-13.312 6.144-16.896 23.04-7.168 33.792 23.552 25.6 63.488 72.704 99.328 136.192 65.024 115.2 204.288 184.32 293.376 67.072 45.056 52.224 88.576 122.88 115.712 221.696 74.24 274.432 35.84 392.192 18.944 437.248-5.12 13.312 0 29.184 12.288 36.352 12.288 7.168 30.208 14.336 53.248 15.36 49.664 2.048 53.248-31.744 53.248-31.744s25.088-231.936-74.24-478.72z" fill="#75BC3B" p-id="12008"></path><path d="M422.912 296.448c12.288 15.36 24.064 32.256 35.328 50.688 49.664 51.2 97.28 115.2 129.024 194.048 58.88 145.92 73.728 286.72 76.8 377.344 2.56-76.288-2.048-253.952-76.8-439.296-39.424-97.28-102.4-172.032-164.352-227.84 2.048 17.408 1.536 32.768 0 45.056zM35.84 98.816C92.16 75.776 199.168 46.08 307.712 90.112c81.92 33.28 108.544 96.768 114.688 149.504 6.144-51.2 4.096-162.816-114.688-211.456-117.76-48.128-233.472-8.704-284.672 13.824-13.312 6.144-16.896 23.04-7.168 33.792 5.632 6.656 12.8 14.336 19.968 23.04z" fill="#9CCB63" p-id="12009"></path><path d="M742.4 303.104s19.968-98.304 148.992-95.744m-510.464 21.504c-6.656-113.152-159.232-138.24-159.232-138.24" fill="#75BC3B" p-id="12010"></path></svg>