<?xml version="1.0" standalone="no"?><!DOCTYPE svg PUBLIC "-//W3C//DTD SVG 1.1//EN" "http://www.w3.org/Graphics/SVG/1.1/DTD/svg11.dtd"><svg t="1739971460072" class="icon" viewBox="0 0 1024 1024" version="1.1" xmlns="http://www.w3.org/2000/svg" p-id="12152" xmlns:xlink="http://www.w3.org/1999/xlink" width="200" height="200"><path d="M534.78 813.8c-0.1 2.26-0.24 4.5-0.398 6.76-30.042 2.24-59.96-0.58-88.34-8.52-38.1-10.64-73.48-30.52-102.74-59.782-28.64-28.638-48.282-63.1-59.08-100.26-8.48-29.12-11.52-59.898-9.22-90.82 31.4-2.36 62.64 0.82 92.16 9.602 36.66 10.898 70.64 30.398 98.92 58.68 28.94 28.94 48.68 63.84 59.42 101.44 6.42 22.5 9.62 45.98 9.62 69.74-0.002 4.382-0.102 8.76-0.342 13.16z" fill="#8EAA39" p-id="12153"></path><path d="M284.048 593.492c31.4-2.36 62.64 0.82 92.16 9.602 36.66 10.898 70.64 30.398 98.92 58.68 25.118 25.118 43.292 54.726 54.682 86.692a246.828 246.828 0 0 0-4.31-17.564c-10.74-37.6-30.48-72.5-59.42-101.44-28.28-28.282-62.26-47.782-98.92-58.68-29.52-8.782-60.76-11.96-92.16-9.602-2.298 30.922 0.74 61.702 9.22 90.82a239.76 239.76 0 0 0 4.426 13.688c-4.886-23.48-6.412-47.792-4.598-72.196z" fill="#849B31" p-id="12154"></path><path d="M535.46 741.32c-0.24-4.4-0.342-8.798-0.342-13.18 0-23.74 3.202-47.22 9.622-69.72 10.74-37.62 30.48-72.5 59.42-101.44 28.28-28.28 62.28-47.8 98.92-58.68 29.52-8.782 60.78-11.96 92.16-9.622 2.32 30.922-0.74 61.702-9.22 90.842-10.798 37.158-30.44 71.62-59.08 100.238-29.26 29.282-64.62 49.14-102.74 59.8-28.378 7.92-58.298 10.74-88.34 8.5-0.16-2.238-0.3-4.498-0.4-6.738z" fill="#8EAA39" p-id="12155"></path><path d="M535.71 745.54c1.19-17.764 4.196-35.28 9.034-52.236 10.74-37.62 30.48-72.5 59.42-101.44 28.28-28.28 62.28-47.8 98.92-58.68 29.52-8.782 60.78-11.96 92.16-9.622 0.06 0.808 0.102 1.616 0.156 2.422 0.82-12.346 0.778-24.812-0.16-37.304-31.38-2.34-62.64 0.84-92.16 9.622-36.64 10.878-70.64 30.4-98.92 58.68-28.94 28.94-48.68 63.82-59.42 101.44-6.42 22.5-9.622 45.98-9.622 69.72 0 4.38 0.102 8.78 0.342 13.18 0.064 1.4 0.162 2.808 0.25 4.218z" fill="#849B31" p-id="12156"></path><path d="M535.12 751.66a10 10 0 0 1-7.05-17.092l0.342-0.34 126.5-126.498a9.996 9.996 0 0 1 14.14 0 9.996 9.996 0 0 1 0 14.14l-126.88 126.88a9.972 9.972 0 0 1-7.052 2.91zM535.12 824.14a9.96 9.96 0 0 1-7.07-2.93l-126.86-126.86a10 10 0 1 1 14.142-14.14l126.858 126.86a9.996 9.996 0 0 1-7.07 17.07z" fill="#849B31" p-id="12157"></path><path d="M779.78 288.6c25.022 0 45.3 20.282 45.3 45.3s-20.28 45.3-45.3 45.3c-25.02 0-45.318-20.28-45.318-45.298S754.76 288.6 779.78 288.6z" fill="#8EAA39" p-id="12158"></path><path d="M797.9 823.2m-45.3 0a45.3 45.3 0 1 0 90.6 0 45.3 45.3 0 1 0-90.6 0Z" fill="#FFD15C" p-id="12159"></path><path d="M805.998 806.042c15.378 0 28.958 7.668 37.144 19.382 0.036-0.736 0.056-1.476 0.056-2.222 0-25.022-20.28-45.3-45.298-45.3s-45.3 20.28-45.3 45.3c0 9.64 3.022 18.57 8.154 25.914 1.16-23.988 20.97-43.074 45.244-43.074z" fill="#F7B64C" p-id="12160"></path><path d="M750.68 351.08c0-25.02 20.298-45.298 45.318-45.298a45.08 45.08 0 0 1 23.7 6.692c-7.642-14.21-22.648-23.874-39.918-23.874-25.02 0-45.318 20.282-45.318 45.3 0 16.324 8.644 30.626 21.602 38.6a45.042 45.042 0 0 1-5.384-21.42z" fill="#849B31" p-id="12161"></path><path d="M290.46 361.08c25.04 0 45.32 20.28 45.32 45.3 0 25.02-20.282 45.318-45.32 45.318-25.02 0-45.3-20.298-45.3-45.318s20.282-45.3 45.3-45.3z" fill="#EF3E5C" p-id="12162"></path><path d="M264.252 428.286c0-25.02 20.282-45.298 45.3-45.298a45.12 45.12 0 0 1 22.83 6.17c-6.782-16.474-22.986-28.076-41.922-28.076-25.02 0-45.3 20.28-45.3 45.3 0 16.704 9.044 31.292 22.498 39.152a45.202 45.202 0 0 1-3.406-17.248z" fill="#E42A53" p-id="12163"></path><path d="M535.12 896.64a10 10 0 0 1-10-10V397.32c0-5.524 4.476-10 10-10s10 4.476 10 10v489.32a10 10 0 0 1-10 10z" fill="#743629" p-id="12164"></path><path d="M661.98 896.64H190.8c-5.524 0-10-4.476-10-10s4.476-10 10-10h471.18c5.524 0 10 4.476 10 10s-4.476 10-10 10z" fill="#415A6B" p-id="12165"></path><path d="M537.12 419.76l-1.86 1.862c-82.44-82.442-164.878-129.38-164.878-211.82 0-45.5 36.92-82.442 82.44-82.442 41.22 0 61.82 20.622 82.44 61.84 20.6-41.218 41.22-61.84 82.44-61.84 45.602 0 82.522 36.942 82.522 82.442-0.004 81.82-81.284 128.678-163.104 209.958z" fill="#EF3E5C" p-id="12166"></path><path d="M400.262 217.5c0-45.5 36.92-82.442 82.44-82.442 2.54 0 4.998 0.08 7.384 0.236-10.414-5.28-22.516-7.936-37.266-7.936-45.52 0-82.44 36.942-82.44 82.442 0 82.44 82.44 129.378 164.878 211.82l1.86-1.862a888.108 888.108 0 0 1 9.048-8.852c-75.65-71.45-145.904-117.304-145.904-193.406z" fill="#E42A53" p-id="12167"></path></svg>