<?xml version="1.0" standalone="no"?><!DOCTYPE svg PUBLIC "-//W3C//DTD SVG 1.1//EN" "http://www.w3.org/Graphics/SVG/1.1/DTD/svg11.dtd"><svg t="1739971465034" class="icon" viewBox="0 0 1024 1024" version="1.1" xmlns="http://www.w3.org/2000/svg" p-id="12309" xmlns:xlink="http://www.w3.org/1999/xlink" width="200" height="200"><path d="M482.398824 245.33856L389.205292 60.582068s-29.350318 46.659481 5.644292 110.628123c34.869182 63.968643 87.549241 74.128368 87.54924 74.128369zM477.00539 128.062714c-32.736894-65.097501-87.800098-67.480647-87.800098-67.480646l99.21411 181.620774s21.44831-49.042626-11.414012-114.140128zM137.21901 631.408133L61.836355 490.049976s-21.824596 36.625184 6.271435 85.542381c28.22146 48.917197 69.11122 55.815777 69.11122 55.815776z" fill="#231815" p-id="12310"></path><path d="M131.073003 540.723175c-26.590887-49.795198-69.236649-50.547771-69.236648-50.547771l80.023518 138.724155s15.678589-38.381186-10.78687-88.176384zM566.310632 104.858403s-37.00147 10.034297-49.293484 59.202352c-12.292014 49.168055 9.783439 79.145517 9.78344 79.145516l39.510044-138.347868z" fill="#231815" p-id="12311"></path><path d="M579.355218 180.617344c13.922587-48.66634-13.170015-75.88437-13.170015-75.88437l-34.869181 139.476727c0.125429 0.125429 34.242038-14.926017 48.039196-63.592357zM214.984811 502.341989s-37.377756 8.403724-51.802057 56.944635c-14.424302 48.540911 6.271436 79.521803 6.271435 79.521803l45.530622-136.466438zM224.768251 578.728074c16.054875-48.039196-9.658011-76.386085-9.658011-76.386085l-41.015189 137.846154c-0.125429 0 34.618324-13.420872 50.6732-61.460069zM943.976482 174.345909c13.922587-48.66634-13.170015-75.88437-13.170015-75.884371l-34.869181 139.476728c0 0.125429 34.11661-14.926017 48.039196-63.592357z" fill="#231815" p-id="12312"></path><path d="M930.806467 98.461538s-37.00147 10.034297-49.293483 59.202352c-12.292014 49.168055 9.783439 79.145517 9.783439 79.145517l39.510044-138.347869zM878.00098 251.359138l-88.427242-93.44439s-9.156296 32.987751 23.078883 64.972072c32.10975 31.733464 65.348359 28.472317 65.348359 28.472318zM853.918667 182.373346c-31.10632-32.987751-64.344929-24.584027-64.344929-24.584027l91.437531 90.55953s4.013719-32.987751-27.092602-65.975503zM907.476727 254.369427s20.068594 18.563449 56.944635 13.546301 47.161195-31.10632 47.161196-31.106321l-104.105831 17.56002zM957.271926 221.00539c-36.625184 6.271436-50.296913 29.852033-50.296914 29.852033l104.607546-14.173445c0 0.125429-17.685448-21.824596-54.310632-15.678588zM796.723175 484.907398c-8.654581-26.465458-29.22489-30.604606-29.22489-30.604605l26.967173 74.379226c-0.125429 0 10.786869-17.309162 2.257717-43.774621zM763.10828 496.44684c9.532582 26.214601 28.723175 33.11318 28.723175 33.11318l-24.458599-75.257227s-13.797158 15.929446-4.264576 42.144047zM861.820676 546.618324c27.845174-1.630573 37.00147-20.570309 37.00147-20.570308l-78.769231 7.274865s13.922587 14.926017 41.767761 13.295443zM859.186673 511.247428c-27.719745 2.508574-39.384615 19.44145-39.384615 19.44145l79.020088-4.640862s-11.915728-17.309162-39.635473-14.800588zM852.66438 483.402254c13.420872-27.719745 0-46.910338 0-46.910338l-35.496325 80.148946c0.125429 0 22.075453-5.518863 35.496325-33.238608z" fill="#231815" p-id="12313"></path><path d="M817.042626 466.845664c-12.542871 28.22146-2.383146 48.540911-2.383145 48.540911l38.130328-78.894659s-23.32974 2.132288-35.747183 30.353748zM368.634983 368.88584c7.400294 20.44488 22.451739 25.712886 22.451739 25.712886l-19.065164-58.575208s-10.786869 12.417442-3.386575 32.862322z" fill="#231815" p-id="12314"></path><path d="M394.724155 359.854973c-6.647722-20.570309-22.828025-23.831455-22.828026-23.831455l20.946595 57.948065c0.125429 0 8.654581-13.546301 1.881431-34.11661zM445.397354 407.89417c21.699167-1.254287 28.848604-16.054875 28.848604-16.054876l-61.33464 5.644292c0 0.125429 10.912298 11.790299 32.486036 10.410584z" fill="#231815" p-id="12315"></path><path d="M443.390495 380.425282c-21.573738 2.006859-30.604606 15.176874-30.604606 15.176874l61.460069-3.637433s-9.281725-13.546301-30.855463-11.539441zM410.528172 345.806957c-9.658011 21.950024-1.881431 37.754042-1.88143 37.754043l29.601176-61.460069c0.125429 0.125429-17.936306 1.756002-27.719746 23.706026zM438.373346 358.726115c10.410583-21.573738 0-36.499755 0-36.499755l-27.594316 62.338069s17.183733-4.264576 27.594316-25.838314zM114.767271 379.798138C82.78295 388.829005 77.013229 413.287604 77.013229 413.287604l90.057815-28.723175c-0.125429 0-20.319451-13.797158-52.303773-4.766291zM127.059285 420.437041c31.733464-10.159726 40.88976-32.862322 40.88976-32.862323l-90.935816 25.712886s18.312592 17.183733 50.046056 7.149437zM170.583048 354.210681l-2.00686-94.44782s-21.322881 13.420872-19.44145 46.659481c1.756002 33.238609 21.44831 47.788339 21.44831 47.788339zM191.529642 304.917197c-0.627144-33.238609-22.828025-45.028907-22.828025-45.028907l5.017148 94.322391c-0.125429-0.125429 18.438021-16.054875 17.810877-49.293484zM115.519843 312.819206c-32.486036-17.309162-55.941205-2.132288-55.941205-2.132288l93.946105 46.032337s-5.518863-26.590887-38.0049-43.900049zM94.196962 354.712396c33.11318 16.180304 57.822636 5.017148 57.822636 5.017148l-92.44096-49.042626s1.505145 27.845174 34.618324 44.025478zM399.239588 302.659481c49.920627 2.88486 75.131798-23.204312 75.131799-23.204312l-141.232729-12.793729c0-0.125429 16.305732 32.987751 66.10093 35.998041zM404.382166 240.823126c-49.795198-4.515434-71.243508 25.712886-71.243508 25.712886l141.609015 8.278295S454.051935 245.33856 404.382166 240.823126zM84.288094 682.833905c41.140617 2.383146 61.836355-19.190593 61.836355-19.190593l-116.397844-10.536012s13.546301 27.21803 54.561489 29.726605zM88.427242 631.784419c-41.015189-3.762861-58.700637 21.197452-58.700637 21.197453l116.77413 6.898579s-17.058305-24.33317-58.073493-28.096032z" fill="#231815" p-id="12316"></path><path d="M552.137188 652.103871c32.235179-84.037237 86.67124-153.273885 181.495345-197.299363 69.236649-32.10975 120.160706-86.169525 150.514454-157.538462 6.020578-14.173444 12.166585-28.723175 11.288584-46.283194-9.783439 4.013719-10.285154 11.037727-13.546301 16.180303-3.386575 5.393435-6.020578 11.163155-9.407153 16.431162-63.592357 97.081823-161.301323 141.232729-267.539442 172.088192-15.051445 4.390005-18.563449-3.386575-19.817736-16.682019-3.762861-43.900049-16.431161-85.291524-38.882901-123.170995-12.542871-21.072024-24.960314-43.022048-47.913768-56.819206-1.254287 3.637433-2.759432 5.518863-2.257716 6.898579 2.383146 7.77658 5.142577 15.427732 8.027437 22.953454 30.604606 79.898089 30.228319 159.043606-1.00343 237.311122-29.22489 9.030867-65.473787-9.783439-99.088682-30.604605h-0.125428c-13.420872-5.142577-26.967173-12.041156-39.760902-19.316022 20.821166-18.939735 45.028907-50.046056 38.757472-89.932386 0 0-39.133758 75.382656-59.954924 76.386085-0.250857 0-0.501715 0.125429-0.878001 0.125429-7.024008-4.515434-13.420872-8.78001-18.688878-12.542871-32.736894-16.55659-41.642332-54.937776-74.880941-83.535522-36.374326-31.231749-89.5561 0-89.5561 0 9.156296 6.020578 16.932876 3.261146 54.185204 6.020578 37.252327 2.759432 38.130328 44.652621 80.023518 94.071534 25.085742 29.601176 95.451249 61.209211 147.755022 81.77952 0 0 0.125429 0 0.250857 0.125428 0.125429 0 0.125429 0.125429 0.250857 0.125429 3.762861 1.505145 30.102891 13.044586 33.11318 40.388045-27.719745 58.700637-57.320921 116.272415-88.050955 173.467908-7.902009 14.800588-18.312592 20.194023-34.618324 20.068594-65.348359-0.501715-116.899559-26.716316-155.280745-79.647232-13.170015-18.187163-22.075453-38.506614-33.865752-58.198922-5.268006 14.424302-4.139147 28.096031-1.128859 42.144047 11.66487 54.561489 46.784909 92.566389 92.942675 118.028418 66.853503 36.876041 116.648702 87.549241 147.127879 157.413032 4.139147 9.532582 9.407153 17.434591 21.573738 17.434591 53.307202-0.125429 106.488976 0 159.796179 0 1.00343-2.006859 2.132288-4.013719 3.135717-6.020578-34.618324-9.281725-49.418912-34.99461-58.073493-65.975502-11.915728-42.394904-15.176874-84.915238-8.278295-128.689858 1.254287-7.902009 2.634003-15.678589 4.013719-23.455169 4.390005-27.468888 28.723175-45.279765 45.154336-54.185203 4.89172-2.257717 9.908868-4.640862 15.176874-7.149437 87.800098-41.89319 228.029397-117.150416 229.910828-171.837335 0 0-98.085252 81.152376-209.465948 111.631554-21.699167 5.518863-38.882901 11.66487-52.429201 17.810877z" fill="#231815" p-id="12317"></path></svg>